<svg version="1.1" xmlns="http://www.w3.org/2000/svg" viewBox="0 0 1246 1455" preserveAspectRatio="xMidYMid meet" xmlns:xlink="http://www.w3.org/1999/xlink" xmlns:svgjs="http://svgjs.dev/svgjs">
<path d="M0 0 C411.18 0 822.36 0 1246 0 C1246 480.15 1246 960.3 1246 1455 C834.82 1455 423.64 1455 0 1455 C0 974.85 0 494.7 0 0 Z " fill="#fefefe" transform="translate(0,0)" data-darkreader-inline-fill="" style="--darkreader-inline-fill: var(--darkreader-background-fefefe, #141617);" class="" id="SvgjsPath1000"></path>
<path d="M0 0 C10.462 11.227 17.807 26.895 17.512 42.344 C16.919 53.593 11.457 64.447 3.375 72.312 C-14.081 86.289 -37.018 89.539 -58.605 91.65 C-87.219 94.481 -110.31 107.767 -128.625 129.938 C-129.261 130.65 -129.896 131.363 -130.551 132.098 C-136.77 139.332 -140.71 147.333 -144.625 155.938 C-144.988 156.711 -145.351 157.485 -145.725 158.282 C-158.803 186.413 -167.928 217.665 -174.038 248.041 C-174.654 251.081 -175.313 254.11 -175.977 257.141 C-182.071 285.501 -183.95 313.987 -183.625 342.938 C-182.898 342.357 -182.171 341.777 -181.422 341.18 C-160.551 324.964 -138.753 321.523 -112.773 324.41 C-93.517 327.08 -75.28 336.237 -62.691 351.242 C-51.701 366.173 -45.344 383.733 -45.562 402.312 C-45.567 403.049 -45.572 403.785 -45.576 404.543 C-45.588 406.341 -45.606 408.139 -45.625 409.938 C-43.666 409.893 -43.666 409.893 -41.668 409.848 C-36.946 409.856 -32.556 410.428 -27.938 411.375 C-27.094 411.548 -26.25 411.72 -25.38 411.898 C-6.542 415.971 11.831 422.253 30 428.625 C30.639 428.847 31.278 429.069 31.936 429.297 C46.399 434.344 61.014 440.013 69.938 453.25 C75.426 467.328 73.691 482.869 71.438 497.438 C71.164 499.29 71.164 499.29 70.885 501.18 C69.576 509.953 69.576 509.953 68.834 513.58 C68.286 516.395 68.097 519.206 67.883 522.063 C65.107 556.738 53.155 588.792 38.375 619.938 C37.919 620.904 37.464 621.87 36.995 622.865 C29.914 637.784 22.153 652.786 11.453 665.465 C9.871 667.348 8.354 669.241 6.859 671.191 C1.266 678.484 -4.608 685.35 -10.91 692.039 C-13.104 694.381 -15.227 696.75 -17.312 699.188 C-22.865 705.589 -28.925 711.447 -35.363 716.949 C-37.613 718.927 -39.783 720.978 -41.954 723.042 C-66.487 746.22 -105.558 772.938 -140.625 772.938 C-140.586 774.074 -140.548 775.211 -140.508 776.383 C-140.511 783.903 -141.599 791.359 -142.5 798.812 C-142.876 801.957 -143.249 805.101 -143.621 808.246 C-143.712 809.009 -143.803 809.772 -143.896 810.558 C-144.484 815.556 -144.957 820.553 -145.367 825.568 C-146.238 835.858 -148.496 845.12 -155.625 852.938 C-158.625 853.562 -158.625 853.562 -161.625 852.938 C-167.406 847.478 -167.99 840.454 -168.625 832.938 C-169.429 832.69 -170.234 832.442 -171.062 832.188 C-174.625 830.938 -174.625 830.938 -176.5 829.984 C-193.837 821.185 -215.747 824.605 -233.625 829.938 C-234.961 830.241 -234.961 830.241 -236.324 830.551 C-238.758 831.09 -238.758 831.09 -241.625 832.938 C-242.576 835.097 -242.943 837.043 -243.266 839.379 C-243.658 842.175 -244.366 844.738 -245.188 847.438 C-245.436 848.273 -245.685 849.108 -245.941 849.969 C-246.625 851.938 -246.625 851.938 -247.625 852.938 C-250.375 853.5 -250.375 853.5 -253.625 852.938 C-262.191 844.395 -262.184 830.193 -262.625 818.938 C-263.427 819.592 -264.229 820.247 -265.055 820.922 C-292.096 842.74 -319.015 856.238 -354.625 853.938 C-358.823 853.342 -362.618 852.296 -366.625 850.938 C-367.739 850.644 -368.853 850.35 -370 850.047 C-380.261 847.031 -386.527 841.606 -393.625 833.938 C-394.089 833.438 -394.553 832.938 -395.032 832.423 C-412.345 813.435 -418.49 793.897 -417.757 768.617 C-417.098 755.23 -413.907 743.184 -408.625 730.938 C-408.292 730.142 -407.959 729.346 -407.616 728.526 C-403.3 718.243 -398.67 708.778 -392.18 699.688 C-390.458 697.157 -390.458 697.157 -390.598 694.824 C-392.031 692.192 -393.893 690.673 -396.188 688.75 C-401.118 684.457 -405.42 679.934 -409.625 674.938 C-410.344 674.094 -411.064 673.251 -411.805 672.383 C-449.333 627.582 -468.049 566.327 -473.625 508.938 C-473.696 508.235 -473.766 507.533 -473.839 506.809 C-474.741 497.378 -474.747 487.904 -474.812 478.438 C-474.826 477.231 -474.839 476.025 -474.852 474.782 C-474.863 462.63 -472.547 455.353 -464.625 445.938 C-442.438 425.425 -404.963 415.577 -375.625 412.938 C-375.557 411.957 -375.557 411.957 -375.487 410.956 C-374.27 394.702 -367.8 378.651 -357.625 365.938 C-356.835 364.911 -356.045 363.885 -355.23 362.828 C-340.34 343.986 -317.731 329.988 -293.625 326.938 C-274.554 325.475 -258.979 331.909 -242.625 340.938 C-246.497 310.177 -252.062 280.61 -260.539 250.769 C-261.213 248.39 -261.881 246.009 -262.539 243.625 C-271.443 211.373 -286.505 176.373 -315.812 157.492 C-331.987 148.552 -348.102 146.691 -366.295 145.231 C-384.485 143.748 -402.973 139.43 -415.41 124.844 C-420.934 117.135 -423.759 108.427 -422.625 98.938 C-420.096 85.104 -413.911 73.361 -402.805 64.379 C-388.095 54.652 -372.658 51.546 -355.324 54.59 C-332.209 59.516 -311.582 72.923 -294.625 88.938 C-293.898 89.6 -293.171 90.263 -292.422 90.945 C-273.137 109.19 -257.343 136.032 -248.625 160.938 C-248.27 161.926 -248.27 161.926 -247.909 162.934 C-230.088 213.263 -224.109 271.338 -220.473 324.234 C-220.387 325.48 -220.301 326.725 -220.212 328.008 C-219.809 334.006 -219.444 340.002 -219.13 346.005 C-219.001 348.161 -218.872 350.317 -218.742 352.473 C-218.703 353.448 -218.663 354.424 -218.623 355.429 C-218.231 361.607 -217.17 364.653 -212.625 368.938 C-211.965 369.267 -211.305 369.598 -210.625 369.938 C-210.694 369.007 -210.764 368.077 -210.835 367.118 C-211.586 356.266 -211.818 345.461 -211.863 334.586 C-211.868 333.683 -211.873 332.78 -211.878 331.85 C-211.914 325.004 -211.93 318.158 -211.938 311.312 C-211.939 310.305 -211.94 309.298 -211.941 308.261 C-211.973 276.295 -211.238 244.676 -207.926 212.856 C-207.62 209.885 -207.329 206.912 -207.042 203.939 C-203.102 163.355 -198.751 122.427 -181.625 84.938 C-181.121 83.81 -181.121 83.81 -180.606 82.66 C-172.821 65.308 -163.639 49.597 -151.925 34.607 C-150.832 33.204 -149.761 31.783 -148.695 30.359 C-129.287 4.543 -104.028 -10.817 -72.184 -15.781 C-48.426 -19.111 -18.472 -16.846 0 0 Z " fill="#012b4c" transform="translate(738.625,177.0625)" data-darkreader-inline-fill="" style="--darkreader-inline-fill: var(--darkreader-background-012b4c, #001d3a);" class="" id="SvgjsPath1001"></path>
<path d="M0 0 C24.931 -1.753 51.773 6.125 74 17 C74.913 17.435 74.913 17.435 75.845 17.879 C90.859 25.097 90.859 25.097 93.758 33.09 C94.333 35.393 94.7 37.646 95 40 C95.11 40.737 95.219 41.475 95.332 42.234 C103.044 103.522 72.772 178.752 36.906 227.867 C35.002 230.31 33.027 232.658 31 235 C30.076 236.094 29.153 237.189 28.23 238.285 C13.274 255.981 -1.388 270.232 -21.625 281.938 C-22.683 282.55 -23.74 283.163 -24.83 283.794 C-33.077 288.535 -41.363 293.014 -50 297 C-50.838 297.391 -51.676 297.783 -52.539 298.186 C-73.574 307.936 -95.246 314.601 -118 319 C-118.853 319.165 -119.706 319.33 -120.584 319.5 C-132.7 321.735 -144.709 322.262 -157 322.25 C-157.703 322.249 -158.406 322.249 -159.13 322.248 C-165.528 322.227 -171.698 322.193 -178 321 C-172.042 308.101 -163.993 294.965 -150.473 288.863 C-142.219 285.982 -133.562 284.3 -125 282.625 C-103.958 278.126 -85.753 267.16 -69 254 C-68.025 253.238 -67.051 252.476 -66.047 251.691 C-59.079 246.107 -52.486 240.13 -46 234 C-44.664 232.745 -44.664 232.745 -43.301 231.465 C-42.459 230.651 -41.617 229.838 -40.75 229 C-40.023 228.299 -39.296 227.597 -38.547 226.875 C-31.425 218.836 -25.907 209.812 -20.625 200.5 C-19.978 199.364 -19.331 198.229 -18.664 197.059 C-16.766 193.711 -14.881 190.357 -13 187 C-12.485 186.09 -11.97 185.18 -11.44 184.242 C-1.969 167.416 2.98 152.022 5.531 132.859 C7.006 122.056 8.99 111.303 15 102 C16.812 102.562 16.812 102.562 19 104 C20.873 107.675 21.95 110.784 22.875 114.812 C23.679 118.141 23.679 118.141 26.375 119.5 C29.035 120.007 30.487 119.931 33 119 C35.292 110.514 34.046 104.556 29.832 96.809 C25.773 90.586 20.696 86.443 13.496 84.434 C6.24 83.173 -0.723 82.815 -7 87 C-7 88.65 -7 90.3 -7 92 C-34.921 106.662 -64.857 116.93 -96 122 C-96.966 122.159 -96.966 122.159 -97.952 122.321 C-138.534 128.967 -181.049 132.532 -222 127 C-223.059 126.86 -224.118 126.72 -225.209 126.576 C-266.474 120.869 -312.585 108.132 -347 84 C-347 83.67 -347 83.34 -347 83 C-345.753 82.836 -345.753 82.836 -344.48 82.668 C-342.85 82.43 -342.85 82.43 -341.188 82.188 C-340.109 82.037 -339.03 81.886 -337.918 81.73 C-334.936 80.984 -333.858 80.379 -332 78 C-333.203 73.59 -334.312 70.791 -338 68 C-344.187 65.502 -349.42 65.562 -355.52 68.012 C-364.933 72.486 -370.192 77.823 -375 87 C-375.344 87.638 -375.688 88.276 -376.043 88.934 C-378.924 95.223 -378.478 102.225 -378 109 C-376.957 110.238 -376.957 110.238 -374.688 110.375 C-371.867 110.257 -371.867 110.257 -370.066 108.059 C-367.419 104.14 -365.876 100.108 -364.25 95.688 C-363.934 94.852 -363.618 94.016 -363.293 93.154 C-362.52 91.106 -361.756 89.055 -361 87 C-360.67 87 -360.34 87 -360 87 C-359.885 87.612 -359.77 88.224 -359.652 88.854 C-355.751 109.323 -350.214 128.832 -342 148 C-341.574 149.019 -341.574 149.019 -341.139 150.058 C-330.204 176.136 -316.268 198.28 -296 218 C-297.545 222.146 -300.241 223.932 -303.75 226.5 C-309.52 230.791 -315.001 235.336 -320.417 240.064 C-322.879 242.208 -325.279 244.186 -328 246 C-346.702 227.717 -346.702 227.717 -354 218 C-355.174 216.494 -355.174 216.494 -356.371 214.957 C-368.931 198.464 -377.096 179.42 -384 160 C-384.336 159.058 -384.672 158.116 -385.018 157.146 C-393.631 132.578 -400.895 106.151 -403.756 80.213 C-404.015 77.862 -404.312 75.518 -404.609 73.172 C-405.219 68.123 -405.646 63.073 -406 58 C-406.075 57.025 -406.15 56.049 -406.227 55.044 C-407.582 35.36 -407.582 35.36 -402.562 29.188 C-400.074 27.059 -400.074 27.059 -397 25 C-396.389 24.585 -395.777 24.17 -395.147 23.743 C-376.943 11.629 -351.269 1 -329 1 C-329.021 2.176 -329.041 3.351 -329.062 4.562 C-329.069 8.474 -328.643 12.145 -328 16 C-332.329 17.959 -336.738 18.809 -341.375 19.688 C-352.06 21.809 -362.369 24.995 -372.736 28.307 C-374.812 28.943 -376.889 29.495 -379 30 C-378.67 31.65 -378.34 33.3 -378 35 C-358.04 40.661 -338.087 46.313 -317.812 50.75 C-316.359 51.07 -316.359 51.07 -314.875 51.396 C-310.019 52.439 -305.257 53.235 -300.312 53.75 C-294.341 54.647 -290.66 57.954 -286.062 61.684 C-268.7 74.816 -245.488 76.932 -224.562 74.188 C-221.626 73.757 -218.831 73.305 -216.038 72.28 C-208.83 69.685 -201.845 69.631 -194.277 69.744 C-191.965 69.778 -189.654 69.794 -187.341 69.805 C-182.394 69.832 -177.447 69.884 -172.5 69.938 C-166.052 70.003 -159.604 70.057 -153.156 70.09 C-151.961 70.096 -151.961 70.096 -150.742 70.102 C-133.772 70.168 -116.92 69.247 -100 68 C-98.537 67.894 -97.074 67.787 -95.611 67.681 C-47.292 64.143 3.703 59.527 49.5 42.938 C51.266 42.302 51.266 42.302 53.068 41.653 C54.17 41.24 55.271 40.828 56.406 40.402 C57.389 40.036 58.372 39.67 59.385 39.293 C62.228 37.887 63.974 36.429 66 34 C66.158 31.88 66.158 31.88 65 30 C51.412 17.882 24.299 17.138 7 14 C5.831 13.787 4.661 13.573 3.457 13.354 C0.971 12.901 -1.514 12.449 -4 12 C-3.251 10.047 -2.503 8.094 -1.754 6.141 C-1.039 4.109 -0.486 2.096 0 0 Z " fill="#219cd8" transform="translate(691,610)" data-darkreader-inline-fill="" style="--darkreader-inline-fill: var(--darkreader-background-219cd8, #157daf);" class="" id="SvgjsPath1002"></path>
<path d="M0 0 C0.871 0.437 1.743 0.874 2.641 1.324 C13.707 7.106 26.863 15.589 31 28 C35.782 24.099 35.782 24.099 39.938 19.562 C42.893 15.891 46.377 12.998 50 10 C50.63 9.47 51.261 8.94 51.91 8.395 C70.889 -6.765 98.039 -7.62 121.198 -5.83 C139.509 -3.577 156.207 8.139 167.375 22.312 C183.434 43.898 182.971 67.984 183.754 93.742 C183.82 95.84 183.885 97.938 183.951 100.036 C184.089 104.415 184.224 108.793 184.357 113.172 C184.527 118.745 184.702 124.318 184.878 129.891 C185.015 134.219 185.149 138.546 185.282 142.874 C185.346 144.927 185.41 146.98 185.475 149.033 C186.491 181.317 186.491 181.317 185.188 192.625 C185.082 193.748 185.082 193.748 184.975 194.895 C184.49 199.277 183.71 202.486 181 206 C167.955 213.657 148.543 211.841 134.016 210.676 C133.312 210.619 132.609 210.563 131.884 210.505 C129.484 209.862 128.538 208.929 127 207 C126.101 204.303 125.824 202.498 125.701 199.707 C125.662 198.818 125.622 197.93 125.582 197.014 C125.545 196.031 125.507 195.048 125.469 194.035 C125.406 192.464 125.406 192.464 125.343 190.86 C124.749 174.612 124.655 158.35 124.474 142.093 C124.243 118.894 124.243 118.894 123.52 95.707 C123.481 94.803 123.442 93.898 123.402 92.966 C122.865 81.792 121.836 69.4 114.875 60.188 C102.417 50.709 90.503 48.01 75 49 C67.435 50.157 62.541 53.945 58 60 C50.664 72.015 48.759 83.337 48.359 97.312 C48.301 99.15 48.301 99.15 48.242 101.025 C47.911 112.724 47.995 124.423 48.078 136.125 C48.091 138.083 48.103 140.041 48.116 141.999 C48.17 150.063 48.225 158.127 48.322 166.191 C48.382 171.197 48.417 176.204 48.435 181.211 C48.447 183.099 48.468 184.987 48.498 186.875 C48.539 189.492 48.549 192.106 48.552 194.723 C48.571 195.491 48.591 196.26 48.611 197.052 C48.58 201.066 48.164 202.797 45.607 205.96 C38.065 211.861 25.792 210.342 16.601 210.316 C14.24 210.312 11.88 210.336 9.52 210.361 C7.997 210.364 6.475 210.364 4.953 210.363 C4.258 210.372 3.563 210.382 2.847 210.391 C-2.229 210.344 -5.601 209.382 -10 207 C-12.606 204.16 -13.375 202.316 -13.379 198.484 C-13.387 197.584 -13.395 196.683 -13.403 195.755 C-13.397 194.774 -13.391 193.792 -13.385 192.781 C-13.39 191.742 -13.396 190.702 -13.401 189.631 C-13.411 187.37 -13.414 185.109 -13.411 182.847 C-13.406 179.25 -13.42 175.652 -13.439 172.055 C-13.476 164.391 -13.49 156.727 -13.5 149.062 C-13.512 140.234 -13.534 131.405 -13.58 122.577 C-13.593 119.067 -13.589 115.558 -13.585 112.048 C-13.264 86.227 -13.264 86.227 -21 62 C-21.443 61.193 -21.887 60.386 -22.344 59.555 C-26.382 52.875 -30.574 49.833 -38 47.688 C-49.429 45.526 -62.612 47.405 -72.531 53.574 C-79.177 58.503 -86.079 64.606 -87.525 73.077 C-88.047 77.389 -88.311 81.659 -88.5 85.996 C-88.56 87.318 -88.56 87.318 -88.622 88.667 C-88.753 91.59 -88.877 94.514 -89 97.438 C-89.044 98.45 -89.087 99.463 -89.132 100.506 C-89.981 120.481 -90.387 140.457 -90.658 160.447 C-90.732 165.901 -90.832 171.354 -90.945 176.807 C-91.001 180.068 -91.02 183.328 -91.039 186.59 C-91.075 188.675 -91.113 190.759 -91.152 192.844 C-91.146 194.273 -91.146 194.273 -91.139 195.732 C-91.309 202.084 -91.309 202.084 -93.277 204.692 C-99.661 210.221 -106.893 210.306 -114.875 210.188 C-115.79 210.18 -116.704 210.173 -117.646 210.166 C-139.663 209.908 -139.663 209.908 -148 208 C-148 207.34 -148 206.68 -148 206 C-148.66 206 -149.32 206 -150 206 C-152.327 201.375 -152.306 197.219 -152.319 192.163 C-152.329 191.28 -152.339 190.398 -152.349 189.488 C-152.38 186.559 -152.397 183.629 -152.414 180.699 C-152.433 178.627 -152.452 176.556 -152.473 174.484 C-152.524 168.997 -152.564 163.51 -152.601 158.023 C-152.632 153.67 -152.672 149.316 -152.712 144.963 C-153.042 109.392 -153.317 73.81 -152.683 38.241 C-152.623 34.75 -152.577 31.26 -152.531 27.77 C-152.493 25.51 -152.454 23.251 -152.414 20.992 C-152.403 19.967 -152.391 18.943 -152.379 17.887 C-152.182 8.453 -152.182 8.453 -150 4 C-140.349 -1.089 -128.629 -0.259 -118 0 C-116.885 0.027 -116.885 0.027 -115.747 0.054 C-113.33 0.122 -110.915 0.213 -108.5 0.312 C-107.734 0.335 -106.968 0.357 -106.179 0.38 C-101.689 0.6 -98.654 1.13 -95 4 C-92.815 7.277 -92.678 8.723 -92.438 12.562 C-92.261 16.427 -92.261 16.427 -91 20 C-90.481 19.481 -89.961 18.961 -89.426 18.426 C-87.979 16.979 -86.531 15.534 -85.082 14.09 C-83.535 12.537 -82.011 10.962 -80.5 9.375 C-70.323 -0.294 -58.676 -4.446 -45 -7 C-44.243 -7.144 -43.487 -7.289 -42.707 -7.438 C-28.484 -9.572 -12.655 -6.712 0 0 Z " fill="#012b4c" transform="translate(624,1100)" data-darkreader-inline-fill="" style="--darkreader-inline-fill: var(--darkreader-background-0370b0, #00588e);" id="SvgjsPath1003"></path>
<path d="M0 0 C1.191 0.451 1.191 0.451 2.406 0.91 C10.582 4.345 17.367 11.052 23.812 17 C24.434 17.569 25.056 18.138 25.697 18.724 C30.023 22.791 33.591 27.144 37 32 C37.545 32.771 38.091 33.542 38.652 34.336 C45.352 44.965 49.309 57.208 52.875 69.188 C53.078 69.869 53.281 70.551 53.49 71.254 C60.303 95.117 57.297 125.57 47 148 C46.559 149.012 46.118 150.024 45.664 151.066 C33.671 177.008 7.986 193.568 -17.883 203.562 C-23.795 205.713 -29.788 207.005 -36 208 C-37.106 208.195 -37.106 208.195 -38.234 208.395 C-56.726 211.082 -74.893 208.102 -92.562 202.688 C-93.466 202.416 -94.37 202.145 -95.302 201.865 C-100.859 200.069 -105.365 197.725 -110.111 194.317 C-112.096 192.853 -112.096 192.853 -114.938 191.625 C-125.607 185.964 -134.329 176.289 -143 168 C-144.21 166.863 -144.21 166.863 -145.445 165.703 C-147 164 -147 164 -147 162 C-147.66 162 -148.32 162 -149 162 C-153.314 153.749 -157.448 145.705 -160.113 136.746 C-160.947 133.909 -160.947 133.909 -162.5 131.094 C-165.095 125.15 -165.141 118.449 -165.688 112.062 C-165.75 111.366 -165.812 110.67 -165.876 109.953 C-168.271 83.072 -165.708 55.236 -147.965 33.312 C-147.316 32.549 -146.668 31.786 -146 31 C-145.341 30.134 -144.683 29.267 -144.004 28.375 C-139.82 22.895 -135.434 18.242 -130 14 C-129.286 13.438 -128.572 12.876 -127.836 12.297 C-109.274 -1.485 -86.718 -8.374 -64 -11 C-62.976 -11.13 -61.953 -11.26 -60.898 -11.395 C-39.646 -13.745 -18.879 -10.139 0 0 Z " fill="#012b4c" transform="translate(1103,1105)" data-darkreader-inline-fill="" style="--darkreader-inline-fill: var(--darkreader-background-0371b0, #00588e);" id="SvgjsPath1004"></path>
<path d="M0 0 C1.432 1.211 2.848 2.442 4.25 3.688 C5.192 4.476 6.135 5.265 7.105 6.078 C26.412 22.586 37.572 46.212 39.73 71.375 C40.209 77.931 40.511 84.489 40.625 91.062 C40.651 91.924 40.677 92.785 40.704 93.672 C40.707 94.898 40.707 94.898 40.711 96.148 C40.719 96.858 40.727 97.567 40.736 98.298 C39.963 102.097 39.183 105.097 36.25 107.688 C31.989 108.828 27.759 108.782 23.367 108.809 C21.442 108.86 21.442 108.86 19.478 108.913 C16.056 109.004 12.634 109.054 9.211 109.095 C5.795 109.144 2.38 109.233 -1.035 109.318 C-8.606 109.499 -16.177 109.609 -23.75 109.688 C-24.649 109.697 -25.549 109.706 -26.475 109.716 C-40.346 109.837 -54.209 109.45 -68.074 109.115 C-81.969 108.783 -95.851 108.623 -109.75 108.688 C-106.939 119.093 -104.094 127.457 -96.75 135.688 C-96.117 136.426 -95.484 137.165 -94.832 137.926 C-86.473 146.512 -72.252 150.678 -60.438 150.938 C-43.433 150.682 -26.625 146.042 -13.75 134.688 C-12.37 133.502 -10.975 132.334 -9.562 131.188 C-8.675 130.43 -8.675 130.43 -7.77 129.656 C-4.643 128.156 -3.044 128.641 0.25 129.688 C3.026 131.467 5.498 133.545 8 135.688 C8.699 136.275 9.399 136.863 10.119 137.469 C11.52 138.651 12.916 139.839 14.307 141.032 C16.011 142.484 17.737 143.9 19.48 145.305 C23.189 148.398 25.804 150.666 27.75 155.125 C26.609 163.258 21.284 169.489 15.117 174.617 C-11.464 193.811 -45.318 202.897 -78.069 198.367 C-98.105 194.661 -115.136 185.357 -130.75 172.688 C-131.677 171.986 -132.604 171.285 -133.559 170.562 C-134.282 169.944 -135.005 169.325 -135.75 168.688 C-135.75 168.027 -135.75 167.368 -135.75 166.688 C-136.41 166.688 -137.07 166.688 -137.75 166.688 C-155.757 150.177 -165.904 124.589 -167.75 100.688 C-168.712 68.454 -160.203 38.989 -138.16 15.094 C-133.978 10.918 -129.434 7.282 -124.75 3.688 C-123.454 2.668 -123.454 2.668 -122.133 1.629 C-109.9 -7.682 -97.784 -13.349 -82.75 -16.312 C-81.734 -16.537 -80.718 -16.761 -79.672 -16.992 C-53.329 -22.246 -21.582 -16.265 0 0 Z " fill="#012b4c" transform="translate(405.75,1113.3125)" data-darkreader-inline-fill="" style="--darkreader-inline-fill: var(--darkreader-background-0370b0, #00588e);" id="SvgjsPath1005"></path>
<path d="M0 0 C0.905 -0.001 1.81 -0.003 2.743 -0.004 C10.592 0.119 17.377 1.599 24.75 4.375 C23.75 7.375 23.75 7.375 21.223 8.742 C20.097 9.24 18.972 9.737 17.812 10.25 C-1.756 19.523 -18.365 34.985 -32.25 51.375 C-32.963 52.209 -33.676 53.043 -34.41 53.902 C-39.861 60.808 -44.188 68.221 -48.5 75.875 C-49.09 76.919 -49.681 77.963 -50.289 79.039 C-61.335 98.644 -61.335 98.644 -62.25 120.375 C-60.346 120.393 -60.346 120.393 -58.25 119.375 C-56.87 117.124 -55.772 115.015 -54.688 112.625 C-53.99 111.168 -53.291 109.713 -52.59 108.258 C-52.216 107.473 -51.842 106.688 -51.457 105.88 C-39.744 81.565 -39.744 81.565 -31.25 72.375 C-30.532 71.553 -29.814 70.73 -29.074 69.883 C-20.807 60.487 -12.071 52.13 -2.25 44.375 C-1.251 43.559 -0.252 42.743 0.777 41.902 C19.756 26.593 43.77 13.844 68.75 16.375 C78.575 17.822 87.403 20.924 95.75 26.375 C96.697 26.985 97.645 27.594 98.621 28.223 C104.722 32.387 110.012 36.907 113.75 43.375 C113.75 44.365 113.75 45.355 113.75 46.375 C108.223 47.757 102.858 48.601 97.188 49.188 C75.2 51.724 53.829 62.739 39.646 79.977 C33.812 87.358 29.15 95.039 24.938 103.438 C19.88 113.308 14.57 122.935 8.75 132.375 C8.303 133.105 7.855 133.835 7.395 134.586 C1.843 143.589 -3.775 151.839 -11.25 159.375 C-12.075 160.241 -12.9 161.107 -13.75 162 C-14.988 163.176 -14.988 163.176 -16.25 164.375 C-16.87 164.99 -17.49 165.605 -18.129 166.238 C-30.235 177.738 -45.784 182.906 -62.25 183.375 C-63.347 183.427 -64.444 183.478 -65.574 183.531 C-81.754 183.991 -94.23 177.926 -106.25 167.375 C-113.311 159.863 -116.922 152.353 -119.25 142.375 C-119.424 141.776 -119.597 141.177 -119.776 140.56 C-122.772 126.746 -121.34 109.484 -116.25 96.375 C-115.896 95.432 -115.896 95.432 -115.535 94.471 C-106.831 71.641 -90.251 46.614 -71.258 31.043 C-68.926 29.106 -66.764 27.022 -64.562 24.938 C-47.376 9.485 -23.139 -0.035 0 0 Z " fill="#e96e7c" transform="translate(462.25,825.625)" data-darkreader-inline-fill="" style="--darkreader-inline-fill: var(--darkreader-background-e96e7c, #830f1c);" id="SvgjsPath1006"></path>
<path d="M0 0 C5.654 5.384 6.212 13.771 6.801 21.238 C6.92 22.696 6.92 22.696 7.043 24.184 C8.119 39.162 7.882 54.204 7.821 69.212 C7.81 72.478 7.81 75.745 7.811 79.012 C7.81 96.488 7.589 113.942 7.051 131.41 C6.606 145.942 6.469 160.461 6.5 175 C6.501 176.221 6.502 177.442 6.503 178.7 C6.519 197.985 6.832 217.251 7.333 236.529 C8.69 289.038 8.69 289.038 4.625 294.5 C1.309 296.057 -1.633 296.81 -5.27 297.133 C-6.214 297.217 -7.158 297.301 -8.132 297.388 C-9.14 297.466 -10.148 297.544 -11.188 297.625 C-12.234 297.708 -13.28 297.792 -14.359 297.878 C-22.093 298.443 -29.808 298.711 -37.562 298.75 C-38.571 298.759 -39.579 298.768 -40.618 298.778 C-42.035 298.772 -42.035 298.772 -43.48 298.766 C-44.72 298.762 -44.72 298.762 -45.985 298.759 C-48.849 298.449 -50.851 297.91 -53.375 296.5 C-55.209 292.876 -55.631 289.876 -55.653 285.846 C-55.665 284.715 -55.676 283.583 -55.687 282.418 C-55.689 281.182 -55.692 279.947 -55.694 278.674 C-55.704 277.361 -55.714 276.047 -55.724 274.694 C-55.752 271.069 -55.767 267.444 -55.78 263.819 C-55.796 259.952 -55.823 256.085 -55.848 252.217 C-55.896 244.735 -55.933 237.253 -55.965 229.771 C-55.992 223.735 -56.022 217.698 -56.055 211.661 C-56.17 190.275 -56.266 168.889 -56.348 147.502 C-56.368 142.329 -56.389 137.155 -56.411 131.982 C-56.474 117.672 -56.525 103.363 -56.55 89.054 C-56.557 84.959 -56.569 80.863 -56.584 76.768 C-56.646 58.316 -56.595 39.877 -55.725 21.442 C-55.652 19.862 -55.583 18.282 -55.521 16.702 C-55.433 14.548 -55.319 12.396 -55.197 10.243 C-55.135 9.031 -55.073 7.82 -55.01 6.571 C-54.262 2.951 -53.317 1.687 -50.375 -0.5 C-47.681 -0.907 -45.38 -1.081 -42.688 -1.074 C-41.578 -1.095 -41.578 -1.095 -40.447 -1.117 C-38.089 -1.159 -35.733 -1.174 -33.375 -1.188 C-31.018 -1.217 -28.661 -1.251 -26.303 -1.29 C-24.839 -1.312 -23.374 -1.328 -21.909 -1.337 C-3.446 -1.531 -3.446 -1.531 0 0 Z " fill="#012b4c" transform="translate(902.375,1009.5)" data-darkreader-inline-fill="" style="--darkreader-inline-fill: var(--darkreader-background-0371b0, #00588e);" id="SvgjsPath1007"></path>
<path d="M0 0 C1.239 -0.001 2.479 -0.003 3.756 -0.004 C5.039 -0 6.322 0.004 7.645 0.008 C8.908 0.004 10.172 0 11.475 -0.004 C33.451 0.019 33.451 0.019 38.457 4.133 C39.054 7.017 39.253 9.32 39.275 12.232 C39.299 13.134 39.324 14.037 39.349 14.967 C39.422 18.356 39.444 21.743 39.457 25.133 C39.461 25.814 39.464 26.496 39.468 27.198 C39.529 39.329 39.467 51.459 39.389 63.589 C39.358 68.603 39.333 73.616 39.307 78.629 C39.262 87.039 39.212 95.449 39.16 103.859 C39.1 113.533 39.047 123.206 38.998 132.879 C38.951 142.252 38.898 151.625 38.843 160.999 C38.82 164.957 38.798 168.916 38.779 172.875 C38.755 177.549 38.726 182.223 38.695 186.896 C38.684 188.595 38.675 190.293 38.667 191.991 C38.627 200.784 38.455 209.556 38.021 218.34 C37.985 219.113 37.949 219.886 37.911 220.683 C36.851 240.226 30.128 260.24 15.77 274.008 C-0.796 287.778 -21.653 293.732 -43.039 291.82 C-54.311 290.549 -64.926 288.309 -73.418 280.383 C-76.933 273.352 -73.318 264.585 -71.293 257.57 C-70.993 256.473 -70.692 255.375 -70.383 254.244 C-66.323 239.913 -66.323 239.913 -61.709 236.958 C-59.235 236.015 -57.512 235.96 -54.875 236.078 C-53.981 236.103 -53.087 236.127 -52.166 236.152 C-50.312 236.222 -48.457 236.3 -46.604 236.387 C-38.79 236.577 -33.003 234.806 -26.793 230.008 C-20.906 222.486 -18.384 215.2 -18.41 205.762 C-18.409 205.001 -18.407 204.24 -18.406 203.456 C-18.404 200.869 -18.41 198.282 -18.418 195.695 C-18.419 194.789 -18.42 193.884 -18.422 192.95 C-18.45 174.263 -18.688 155.578 -18.949 136.893 C-18.98 134.666 -19.01 132.438 -19.04 130.211 C-19.252 114.529 -19.577 98.864 -20.2 83.192 C-20.533 74.752 -20.737 66.33 -20.73 57.883 C-20.73 57.217 -20.73 56.55 -20.73 55.864 C-20.71 45.228 -20.355 34.625 -19.73 24.008 C-19.66 22.716 -19.59 21.424 -19.518 20.093 C-19.101 13.864 -18.728 8.578 -15.543 3.133 C-10.68 -0.109 -5.723 0.006 0 0 Z " fill="#012b4c" transform="translate(167.54296875,1098.8671875)" data-darkreader-inline-fill="" style="--darkreader-inline-fill: var(--darkreader-background-0270b0, #00588e);" id="SvgjsPath1008"></path>
<path d="M0 0 C1.227 -0.011 1.227 -0.011 2.48 -0.022 C36.689 -0.251 36.689 -0.251 52.109 3.203 C53.089 3.413 54.069 3.623 55.079 3.839 C79.488 9.195 104.306 17.849 126.109 30.203 C126.937 30.668 127.764 31.133 128.616 31.612 C145.437 41.133 161.453 51.558 176.109 64.203 C176.947 64.919 177.785 65.634 178.648 66.371 C198.96 84.136 213.202 106.148 226.472 129.343 C227.928 131.886 229.395 134.423 230.867 136.957 C234.424 143.124 237.759 149.208 240.215 155.914 C241.205 158.448 242.408 160.795 243.672 163.203 C248.457 172.612 251.357 183.609 251.109 194.203 C251.769 194.203 252.429 194.203 253.109 194.203 C254.008 215.71 254.008 215.71 247.051 223.512 C242.381 227.929 238.368 231.168 231.73 231.223 C226.026 230.908 222.693 229.82 218.109 226.203 C211.309 217.271 209.582 206.206 207.383 195.471 C204.17 180.07 198.907 164.327 190.273 151.059 C188.691 148.537 187.44 145.864 186.109 143.203 C185.449 142.543 184.789 141.883 184.109 141.203 C183.4 139.518 182.691 137.832 181.993 136.143 C180.497 132.859 178.509 129.932 176.484 126.953 C176.037 126.294 175.589 125.635 175.128 124.956 C160.145 103.145 140.445 83.832 117.109 71.203 C116.061 70.623 116.061 70.623 114.991 70.031 C104.309 64.127 93.688 59.076 82.109 55.203 C81.211 54.899 80.312 54.595 79.387 54.281 C76.975 53.513 74.561 52.836 72.109 52.203 C71.172 51.959 70.235 51.716 69.27 51.465 C65.568 50.59 61.853 49.865 58.109 49.203 C56.955 48.994 56.955 48.994 55.778 48.78 C40.533 46.153 25.287 45.86 9.859 45.766 C8.408 45.748 8.408 45.748 6.927 45.729 C-11.787 45.53 -29.11 48.614 -47.104 53.621 C-56.021 55.988 -64.258 55.824 -72.891 52.203 C-76.746 49.254 -78.181 45.921 -78.891 41.203 C-79.521 34.17 -79.959 27.752 -75.551 21.906 C-62.718 8.742 -39.492 5.039 -22.008 2.562 C-19.843 2.301 -19.843 2.301 -17.891 1.203 C-11.967 0.214 -5.993 0.035 0 0 Z " fill="#012b4c" transform="translate(738.890625,314.796875)" data-darkreader-inline-fill="" style="--darkreader-inline-fill: var(--darkreader-background-012b4c, #001d3a);" id="SvgjsPath1009"></path>
<path d="M0 0 C3.557 2.451 6.798 5.103 10 8 C10.758 8.665 11.516 9.33 12.297 10.016 C22.434 19.454 28.831 30.538 32 44 C32.223 44.816 32.446 45.632 32.676 46.473 C35.454 57.792 35.017 70.083 31 81 C30.66 81.951 30.319 82.903 29.969 83.883 C23.349 101.013 13.452 114.596 -3 123 C-20.175 130.571 -43.893 134.382 -61.812 127.438 C-80.238 119.607 -94.76 105.332 -102.875 87 C-109.551 69.236 -111.043 49.245 -103.523 31.52 C-95.065 13.017 -80.656 -0.213 -61.755 -7.621 C-40.821 -15.201 -18.798 -11.302 0 0 Z " fill="#fefefe" transform="translate(489,537)" data-darkreader-inline-fill="" style="--darkreader-inline-fill: var(--darkreader-background-fcfbf8, #191507);" id="SvgjsPath1010"></path>
<path d="M0 0 C12.34 12.079 18.141 25.279 18.335 42.674 C18.102 61.88 11.339 77.481 -2.165 91.237 C-3.16 92.393 -3.16 92.393 -4.176 93.573 C-13.929 104.459 -29.028 110.55 -43.442 111.366 C-62.418 111.827 -78.067 105.405 -91.848 92.53 C-95.159 89.252 -98.234 85.857 -101.165 82.237 C-101.711 81.567 -102.258 80.896 -102.821 80.206 C-106.062 76.074 -108.316 72.195 -110.165 67.237 C-110.692 66.14 -110.692 66.14 -111.231 65.022 C-116.46 53.196 -115.751 38.18 -111.165 26.237 C-110.801 25.243 -110.438 24.249 -110.063 23.225 C-107.502 16.642 -104.354 10.914 -100.165 5.237 C-99.652 4.494 -99.138 3.752 -98.61 2.987 C-98.133 2.409 -97.656 1.832 -97.165 1.237 C-96.505 1.237 -95.845 1.237 -95.165 1.237 C-94.914 0.655 -94.664 0.074 -94.407 -0.525 C-89.262 -9.795 -76.847 -16.436 -67.102 -19.638 C-41.659 -26.201 -18.496 -17.546 0 0 Z " fill="#fefefe" transform="translate(654.16455078125,544.76318359375)" data-darkreader-inline-fill="" style="--darkreader-inline-fill: var(--darkreader-background-fcfbf8, #191507);" class="" id="SvgjsPath1011"></path>
<path d="M0 0 C1.403 0.354 1.403 0.354 2.835 0.715 C9.604 2.538 15.774 5.107 22.062 8.188 C23.036 8.663 24.01 9.139 25.013 9.629 C54.485 24.255 80.117 42.077 98.062 70.188 C98.505 70.87 98.947 71.552 99.403 72.255 C112.333 92.292 123.386 114.61 121.062 139.188 C119.121 146.261 115.536 150.406 109.254 154.07 C103.544 156.981 98.426 157.94 92.062 157.188 C87.723 155.395 86.26 153.231 84.062 149.188 C83.644 148.637 83.225 148.087 82.793 147.52 C77.395 140.311 75.112 132.108 72.5 123.625 C69.022 111.694 69.022 111.694 63.165 100.829 C62.062 99.187 62.062 99.187 60.547 95.621 C58.876 91.756 56.796 88.626 54.312 85.25 C53.865 84.637 53.417 84.025 52.956 83.394 C51.67 81.649 50.37 79.916 49.062 78.188 C48.194 77.033 48.194 77.033 47.309 75.855 C30.122 54.706 0.029 43.328 -26.347 40.41 C-42.514 39.02 -58.454 40.48 -74.375 43.312 C-84.621 45.065 -92.446 44.814 -101.25 39 C-105.603 34.445 -107.057 29.878 -107.312 23.625 C-107.027 17.232 -104.971 12.87 -100.312 8.5 C-91.439 1.338 -80.861 -0.583 -69.938 -2.812 C-68.306 -3.157 -68.306 -3.157 -66.641 -3.508 C-44.799 -7.365 -21.382 -5.416 0 0 Z " fill="#012b4c" transform="translate(790.9375,403.8125)" data-darkreader-inline-fill="" style="--darkreader-inline-fill: var(--darkreader-background-012b4c, #001d3a);" id="SvgjsPath1012"></path>
<path d="M0 0 C36.035 28.799 50.233 81.512 56.125 125.348 C56.416 128.014 56.688 130.677 56.938 133.348 C57.026 134.261 57.115 135.175 57.207 136.117 C57.501 139.172 57.784 142.228 58.062 145.285 C58.15 146.245 58.238 147.205 58.329 148.193 C59.706 164.196 59.706 164.196 56.938 168.348 C54.562 168.848 54.562 168.848 51.938 168.348 C48.481 164.631 46.312 160.409 44.062 155.91 C35.873 140.08 26.705 124.885 13.938 112.348 C13.339 111.692 12.741 111.035 12.125 110.359 C7.152 104.968 1.112 101.235 -5.062 97.348 C-6.215 96.594 -6.215 96.594 -7.391 95.824 C-18.514 88.784 -30.855 83.563 -43.062 78.723 C-61.103 71.491 -75.162 59.361 -83.062 41.348 C-86.332 30.39 -85.144 15.99 -79.809 6 C-73.581 -4.164 -65.075 -9.979 -53.625 -12.902 C-35.757 -16.31 -14.579 -10.372 0 0 Z " fill="#012b4c" transform="translate(446.0625,113.65234375)" data-darkreader-inline-fill="" style="--darkreader-inline-fill: var(--darkreader-background-022b4c, #001d3a);" id="SvgjsPath1013"></path>
<path d="M0 0 C8.253 8.036 11.448 17.218 11.812 28.562 C11.509 41.121 7.834 51.274 0.375 61.312 C-0.086 61.945 -0.548 62.578 -1.023 63.23 C-4.708 67.884 -9.272 71.434 -13.895 75.121 C-16.218 76.986 -18.464 78.895 -20.688 80.875 C-23.488 83.358 -26.364 85.696 -29.312 88 C-44.549 100.203 -56.934 113.642 -65.625 131.312 C-66.224 132.465 -66.824 133.617 -67.441 134.805 C-71.882 143.399 -75.792 152.149 -79.392 161.13 C-81.524 166.302 -83.641 170.341 -87.625 174.312 C-90.75 174.875 -90.75 174.875 -93.625 174.312 C-98.695 170.558 -98.699 163.135 -99.625 157.312 C-100.554 150.847 -101.289 144.36 -101.988 137.866 C-102.309 134.91 -102.651 131.956 -102.994 129.002 C-107.189 91.522 -104.68 52.347 -80.354 21.712 C-69.079 8.011 -55.826 -2.51 -38.5 -7 C-37.843 -7.172 -37.186 -7.344 -36.509 -7.521 C-23.446 -10.647 -11.078 -7.122 0 0 Z " fill="#012b4c" transform="translate(616.625,68.6875)" data-darkreader-inline-fill="" style="--darkreader-inline-fill: var(--darkreader-background-012b4c, #001d3a);" id="SvgjsPath1014"></path>
<path d="M0 0 C8.117 6.915 12.591 15.789 14.125 26.188 C13.803 32.879 10.302 39.755 5.512 44.336 C-6.075 52.445 -19.523 54.022 -33.117 56.227 C-47.501 58.582 -61.804 61.353 -74.812 68.25 C-75.475 68.593 -76.137 68.936 -76.819 69.29 C-102.022 82.614 -118.702 104.996 -130.438 130.375 C-130.808 131.157 -131.179 131.939 -131.561 132.744 C-143.486 158.043 -152.007 185.188 -158.438 212.375 C-158.768 212.375 -159.097 212.375 -159.438 212.375 C-168.985 159.522 -147.164 92.851 -117.438 49.375 C-111.365 40.887 -104.583 32.975 -97.438 25.375 C-96.903 24.787 -96.368 24.199 -95.816 23.594 C-85.642 12.836 -73.866 5.343 -60.438 -0.625 C-59.011 -1.273 -59.011 -1.273 -57.555 -1.934 C-40.679 -9.155 -15.777 -10.538 0 0 Z " fill="#219cd8" transform="translate(713.4375,188.625)" data-darkreader-inline-fill="" style="--darkreader-inline-fill: var(--darkreader-background-219bd8, #157caf);" id="SvgjsPath1015"></path>
<path d="M0 0 C6.697 4.956 10.707 10.384 13.734 18.023 C15.381 20.04 17.047 22.041 18.734 24.023 C25.834 35.068 24.675 50.733 22.172 63.039 C22.027 63.694 21.883 64.349 21.734 65.023 C21.074 65.023 20.414 65.023 19.734 65.023 C19.636 65.652 19.538 66.282 19.438 66.93 C17.571 77.613 12.991 87.424 4.035 94.008 C-12.486 104.115 -31.463 106.778 -50.328 102.648 C-62.249 98.96 -69.595 89.716 -75.266 79.023 C-79.865 69.49 -81.044 61.17 -80.828 50.648 C-80.816 49.628 -80.816 49.628 -80.804 48.587 C-80.629 34.635 -79.436 22.168 -70.266 11.023 C-69.668 10.254 -69.069 9.484 -68.453 8.691 C-51.842 -11.503 -21.495 -13.477 0 0 Z " fill="#fefefe" transform="translate(1076.265625,1153.9765625)" data-darkreader-inline-fill="" style="--darkreader-inline-fill: var(--darkreader-background-fdfdfe, #141617);" id="SvgjsPath1016"></path>
<path d="M0 0 C12.758 21.657 1.574 62.46 -4.082 84.609 C-15.08 125.218 -33.081 171.746 -61 204 C-61.924 205.094 -62.847 206.189 -63.77 207.285 C-78.726 224.981 -93.388 239.232 -113.625 250.938 C-114.683 251.55 -115.74 252.163 -116.83 252.794 C-125.077 257.535 -133.363 262.014 -142 266 C-142.838 266.391 -143.676 266.783 -144.539 267.186 C-165.574 276.936 -187.246 283.601 -210 288 C-211.279 288.248 -211.279 288.248 -212.584 288.5 C-224.7 290.735 -236.709 291.262 -249 291.25 C-249.703 291.249 -250.406 291.249 -251.13 291.248 C-257.528 291.227 -263.698 291.193 -270 290 C-264.672 278.466 -257.484 265.181 -245.227 259.777 C-244.492 259.521 -243.757 259.264 -243 259 C-240 264.75 -240 264.75 -240 267 C-213.625 278.722 -177.869 262.659 -152.895 253.078 C-139.359 247.617 -127.06 239.453 -116 230 C-114.96 229.143 -113.92 228.288 -112.879 227.434 C-92.633 210.653 -77.924 192.728 -65 170 C-64.218 168.642 -63.435 167.284 -62.652 165.926 C-44.258 133.846 -34.303 101.328 -28 65 C-27.869 64.248 -27.738 63.497 -27.603 62.722 C-26.584 55.949 -27.08 49.042 -27.391 42.225 C-27.547 34.739 -27.547 34.739 -24.879 31.137 C-23.929 30.432 -22.979 29.726 -22 29 C-20.975 28.124 -19.959 27.238 -18.949 26.344 C-18.419 25.885 -17.889 25.426 -17.343 24.953 C-9.867 18.391 -1.862 10.194 0 0 Z M-243 258 C-241 259 -241 259 -241 259 Z " fill="#219cd8" transform="translate(783,641)" data-darkreader-inline-fill="" style="--darkreader-inline-fill: var(--darkreader-background-067abf, #00619a);" id="SvgjsPath1017"></path>
<path d="M0 0 C10.758 8.811 18.392 18.246 24 31 C24.342 31.714 24.683 32.428 25.035 33.164 C28.528 41.579 28.746 53.75 25.438 62.25 C22.498 67.602 18.279 70.08 12.75 72.312 C5.322 73.674 -1.274 73.966 -8.148 70.559 C-14.689 65.053 -17.049 57.263 -19.785 49.471 C-23.608 39.242 -30.84 31.58 -40.625 26.688 C-47.781 24.616 -55.087 24.431 -62.438 25.5 C-71.047 26.708 -78.468 26.802 -86 22 C-90.55 17.683 -91.619 12.827 -92.438 6.75 C-91.395 -2.184 -87.255 -8.796 -80.332 -14.41 C-57.19 -30.187 -19.483 -15.573 0 0 Z " fill="#012b4c" transform="translate(801,499)" data-darkreader-inline-fill="" style="--darkreader-inline-fill: var(--darkreader-background-012b4c, #001d3a);" id="SvgjsPath1018"></path>
<path d="M0 0 C7.777 4.661 11.878 10.998 14.277 19.652 C16.646 30.792 15.877 42.192 9.613 52.035 C3.329 60.753 -4.253 67.598 -15.188 69.469 C-28.098 70.787 -39.15 68.778 -49.598 60.715 C-57.596 52.596 -60.091 44.193 -60.848 33.027 C-60.631 22.862 -57.373 14.276 -50.598 6.715 C-35.866 -7.065 -17.913 -8.862 0 0 Z " fill="#012b4c" transform="translate(200.59765625,1010.28515625)" data-darkreader-inline-fill="" style="--darkreader-inline-fill: var(--darkreader-text-0370b0, #50c0ff);" id="SvgjsPath1019"></path>
<path d="M0 0 C2.751 2.18 5.305 4.436 7.816 6.887 C10.019 9.097 10.019 9.097 12.777 11.145 C13.511 11.757 14.244 12.369 15 13 C15 13.66 15 14.32 15 15 C15.66 15 16.32 15 17 15 C28.593 27.018 36.856 42.137 44.741 56.702 C45.993 58.987 47.275 61.251 48.57 63.512 C52.946 71.175 57.044 78.895 60.688 86.938 C61.039 87.701 61.39 88.465 61.752 89.252 C64.122 94.634 64.122 94.634 63 98 C62.515 97.261 62.031 96.523 61.531 95.762 C54.334 84.87 46.977 74.519 38 65 C37.326 64.25 36.652 63.5 35.957 62.727 C25.708 51.766 13.109 44.713 -1 40 C-2.075 39.634 -3.15 39.268 -4.258 38.891 C-14.107 35.92 -24.199 34.753 -34.395 33.57 C-45.713 32.178 -57.427 30.34 -65 21 C-67.845 15.273 -68.103 8.857 -66.348 2.719 C-64.12 -2.254 -60.705 -6.218 -56 -9 C-37.813 -15.54 -15.865 -9.918 0 0 Z " fill="#219cd8" transform="translate(410,264)" data-darkreader-inline-fill="" style="--darkreader-inline-fill: var(--darkreader-background-219bd8, #157caf);" id="SvgjsPath1020"></path>
<path d="M0 0 C2.211 0.065 4.42 0.203 6.625 0.375 C7.834 0.465 9.043 0.555 10.289 0.648 C12.606 0.868 14.919 1.152 17.215 1.531 C22.465 2.181 27.653 2.147 32.938 2.125 C34.066 2.124 35.194 2.123 36.357 2.121 C45.483 2.08 54.585 1.761 63.697 1.268 C64.644 1.22 65.591 1.171 66.566 1.121 C67.401 1.074 68.236 1.027 69.096 0.978 C71 1 71 1 72 2 C72.099 3.769 72.128 5.542 72.129 7.314 C72.133 8.449 72.136 9.584 72.139 10.753 C72.136 12.606 72.136 12.606 72.133 14.496 C72.134 15.755 72.135 17.014 72.136 18.311 C72.136 20.98 72.135 23.649 72.13 26.319 C72.125 29.743 72.128 33.167 72.134 36.592 C72.138 39.852 72.135 43.111 72.133 46.371 C72.135 47.604 72.137 48.838 72.139 50.109 C72.134 51.815 72.134 51.815 72.129 53.556 C72.129 54.562 72.128 55.567 72.127 56.602 C72 59 72 59 71 61 C68.292 60.167 65.656 59.333 63.125 58.047 C45.888 49.298 23.771 52.575 6 58 C4.421 58.519 2.844 59.043 1.268 59.571 C0.466 59.839 -0.336 60.107 -1.162 60.384 C-1.768 60.587 -2.375 60.79 -3 61 C-2.881 54.705 -2.756 48.41 -2.628 42.116 C-2.585 39.98 -2.543 37.845 -2.503 35.709 C-1.861 1.861 -1.861 1.861 0 0 Z " fill="#219cd8" transform="translate(499,949)" data-darkreader-inline-fill="" style="--darkreader-inline-fill: var(--darkreader-text-077abf, #45b9fe);" id="SvgjsPath1021"></path>
<path d="M0 0 C20.161 6.109 35.581 24.71 45.172 42.583 C59.676 70.227 59.676 70.227 61.309 83.945 C61.951 88.766 62.806 93.555 63.629 98.348 C60.694 95.517 58.147 92.552 55.629 89.348 C41.727 72.278 25.153 60.985 5.504 51.285 C-21.327 37.988 -21.327 37.988 -27.551 23.953 C-29.326 18.316 -29.702 13.143 -27.121 7.723 C-20.568 -2.499 -11.118 -2.152 0 0 Z " fill="#219cd8" transform="translate(417.37109375,122.65234375)" data-darkreader-inline-fill="" style="--darkreader-inline-fill: var(--darkreader-text-219bd8, #39ace6);" id="SvgjsPath1022"></path>
<path d="M0 0 C4.599 3.816 7.032 7.297 7.938 13.293 C8.251 22.903 5.234 30.131 -0.898 37.535 C-3.601 40.391 -6.377 43.134 -9.219 45.852 C-10.187 46.807 -11.155 47.764 -12.121 48.723 C-19.159 55.602 -19.159 55.602 -21.469 55.602 C-21.469 56.262 -21.469 56.922 -21.469 57.602 C-22.942 59.042 -22.942 59.042 -24.977 60.719 C-29.388 64.474 -33.386 68.5 -37.344 72.727 C-38.038 73.467 -38.732 74.208 -39.447 74.971 C-47.92 84.119 -55.396 93.665 -61.469 104.602 C-67.441 95.644 -64.356 81.568 -62.469 71.602 C-61.074 65.194 -59.312 58.892 -57.469 52.602 C-57.242 51.818 -57.015 51.034 -56.781 50.227 C-53.605 39.455 -49.622 30.031 -43.469 20.602 C-42.926 19.761 -42.383 18.921 -41.824 18.055 C-33.812 6.748 -14.544 -8.238 0 0 Z " fill="#219cd8" transform="translate(595.46875,81.3984375)" data-darkreader-inline-fill="" style="--darkreader-inline-fill: var(--darkreader-background-219bd8, #157caf);" id="SvgjsPath1023"></path>
<path d="M0 0 C7.987 8.371 9.914 16.783 9.914 28.188 C-20.116 27.858 -50.146 27.527 -81.086 27.188 C-81.086 16.285 -78.217 10.301 -71.086 2.188 C-70.561 1.557 -70.037 0.927 -69.496 0.277 C-61.609 -8.497 -49.578 -12.791 -38.035 -13.781 C-23.455 -13.936 -11.017 -9.573 0 0 Z " fill="#fefefe" transform="translate(379.0859375,1154.8125)" data-darkreader-inline-fill="" style="--darkreader-inline-fill: var(--darkreader-text-fcfdfd, #ebe9e6);" id="SvgjsPath1024"></path>
<path d="M0 0 C1.487 14.211 2.557 25.582 -6.598 37.418 C-15.94 47.46 -30.076 52.37 -43.508 53.223 C-53.61 53.461 -66.221 53.37 -74 46 C-79.171 38.072 -77.706 26.957 -76 18 C-75.236 17.888 -74.471 17.775 -73.684 17.659 C-55.72 14.963 -37.612 11.865 -20.125 6.875 C-18.917 6.531 -18.917 6.531 -17.684 6.181 C-12.877 4.742 -8.379 2.92 -3.843 0.774 C-2 0 -2 0 0 0 Z " fill="#fefefe" transform="translate(639,737)" data-darkreader-inline-fill="" style="--darkreader-inline-fill: var(--darkreader-text-fbfaf8, #efe9df);" id="SvgjsPath1025"></path>
<path d="M0 0 C20.79 0 41.58 0 63 0 C63 25.516 63 25.516 57 32.242 C56.34 32.781 55.68 33.32 55 33.875 C54.34 34.429 53.68 34.984 53 35.555 C44.313 41.832 30.396 40.871 20.082 39.656 C11.55 38.275 4.999 35.346 -1 29 C-2.166 25.501 -2.169 22.69 -2.188 19 C-2.202 17.763 -2.216 16.525 -2.23 15.25 C-1.952 10.12 -0.919 5.055 0 0 Z " fill="#fefefe" transform="translate(485,756)" data-darkreader-inline-fill="" style="--darkreader-inline-fill: var(--darkreader-text-fbfaf8, #efe9df);" id="SvgjsPath1026"></path>
<path d="M0 0 C6.461 5.202 9.771 10.475 11.145 18.727 C11.952 28.157 11.318 34.677 5.645 42.352 C0.939 47.486 -5.111 50.188 -11.953 51.172 C-18.391 51.416 -23.635 50.648 -28.855 46.727 C-35.119 40.463 -37.755 33.239 -38.105 24.539 C-37.929 14.886 -34.476 7.674 -27.855 0.727 C-18.879 -6.722 -9.362 -6.731 0 0 Z " fill="#012b4c" transform="translate(478.85546875,579.2734375)" data-darkreader-inline-fill="" style="--darkreader-inline-fill: var(--darkreader-text-022b4c, #d3cfc8);" id="SvgjsPath1027"></path>
<path d="M0 0 C5.908 1.031 11.424 2.449 17.125 4.312 C27.269 7.525 37.808 8.861 48.307 10.388 C49.341 10.539 49.341 10.539 50.396 10.693 C52.299 10.969 54.202 11.238 56.105 11.507 C59 12 59 12 61 13 C61.336 22.56 61.58 30.298 56.312 38.688 C50.769 44.231 44.912 47.132 37.062 47.312 C26.571 47.219 15.878 43.864 8.32 36.324 C-0.628 25.572 -0.529 13.236 0 0 Z " fill="#fefefe" transform="translate(412,742)" data-darkreader-inline-fill="" style="--darkreader-inline-fill: var(--darkreader-text-fafaf8, #e9e7e3);" id="SvgjsPath1028"></path>
<path d="M0 0 C11.68 8.909 19.888 21.57 23 36 C23.465 40.652 22.876 43.272 20 47 C16.232 48.256 13.959 48.604 10 48 C7.46 45.698 5.787 42.906 4 40 C-3.633 27.603 -11.237 18.24 -25.812 14.125 C-31.291 12.904 -36.485 12.882 -42.074 13.016 C-46.417 12.992 -50.145 12.46 -53.652 9.699 C-55.805 6.985 -55.471 4.568 -55.352 1.219 C-54.676 -3.042 -52.183 -5.068 -48.938 -7.625 C-31.737 -15.676 -14.984 -10.581 0 0 Z " fill="#012b4c" transform="translate(642,452)" data-darkreader-inline-fill="" style="--darkreader-inline-fill: var(--darkreader-text-032d4d, #d3cfc7);" id="SvgjsPath1029"></path>
<path d="M0 0 C2.413 2.318 3.351 3.562 4.562 6.75 C4.33 10.31 3.707 11.917 1.375 14.625 C-3.778 16.948 -8.312 16.715 -13.812 16.5 C-21.533 16.363 -27.663 17.003 -34.625 20.625 C-35.472 21.049 -36.319 21.473 -37.191 21.91 C-47.758 27.702 -54.222 35.894 -60.176 46.128 C-63.997 52.629 -63.997 52.629 -67.625 54.625 C-70.188 54.688 -70.188 54.688 -72.625 53.625 C-76.092 48.843 -76.354 44.291 -75.625 38.625 C-72.641 23.107 -62.3 11.061 -49.75 1.938 C-34.005 -8.624 -16.11 -13.003 0 0 Z " fill="#012b4c" transform="translate(451.625,450.375)" data-darkreader-inline-fill="" style="--darkreader-inline-fill: var(--darkreader-text-022c4d, #d3cfc8);" id="SvgjsPath1030"></path>
<path d="M0 0 C6.438 5.121 8.946 12.329 10.039 20.293 C10.316 26.604 8.884 32.429 5.016 37.43 C-0.442 43.204 -5.526 46.219 -13.562 46.75 C-20.615 46.546 -25.755 43.381 -30.879 38.699 C-36.541 32.429 -37.839 26.379 -37.594 18.18 C-36.66 10.049 -32.263 3.592 -26.25 -1.812 C-16.885 -7.261 -8.826 -4.922 0 0 Z " fill="#012b4c" transform="translate(625.25,573.8125)" data-darkreader-inline-fill="" style="--darkreader-inline-fill: var(--darkreader-text-022c4d, #d3cfc8);" class="" id="SvgjsPath1031"></path>
<path d="M0 0 C2.55 2.468 4.8 4.935 6.875 7.812 C11.168 13.63 15.813 18.966 21 24 C8.932 28.869 -1.413 28.35 -14 26 C-14 21.547 -13.513 20.896 -10.938 17.5 C-6.847 11.907 -3.407 6.027 0 0 Z " fill="#219cd8" transform="translate(534,635)" data-darkreader-inline-fill="" style="--darkreader-inline-fill: var(--darkreader-text-0679be, #46baff);" class="" id="SvgjsPath1032"></path>
<path d="M0 0 C0.66 0.33 1.32 0.66 2 1 C-4.27 7.27 -10.54 13.54 -17 20 C-17 15.821 -15.248 14.716 -12.438 11.688 C-11.76 10.956 -11.76 10.956 -11.069 10.21 C-7.591 6.505 -3.955 3.181 0 0 Z " fill="#219cd8" transform="translate(277,1120)" data-darkreader-inline-fill="" style="--darkreader-inline-fill: var(--darkreader-text-1e82bc, #4dafe8);" id="SvgjsPath1033"></path>
<path d="M0 0 C0.66 0.33 1.32 0.66 2 1 C-2.29 5.29 -6.58 9.58 -11 14 C-11 9.823 -8.77 7.863 -6 5 C-4.052 3.248 -2.057 1.626 0 0 Z " fill="#012b4c" transform="translate(280,618)" data-darkreader-inline-fill="" style="--darkreader-inline-fill: var(--darkreader-text-1a4261, #9ecaea);" id="SvgjsPath1034"></path>
<path d="M0 0 C2.96 4.44 2.96 4.44 4 7 C3.67 7.99 3.34 8.98 3 10 C-1.062 4.585 -1.062 4.585 -0.75 1.625 C-0.379 0.821 -0.379 0.821 0 0 Z " fill="#219cd8" transform="translate(470,352)" data-darkreader-inline-fill="" style="--darkreader-inline-fill: var(--darkreader-text-3f95c5, #4fa1cf);" id="SvgjsPath1035"></path>
</svg>