<svg version="1.1" xmlns="http://www.w3.org/2000/svg" viewBox="0 0 775 1028" preserveAspectRatio="xMidYMid meet" xmlns:xlink="http://www.w3.org/1999/xlink" xmlns:svgjs="http://svgjs.dev/svgjs">
<path d="M0 0 C255.75 0 511.5 0 775 0 C775 339.24 775 678.48 775 1028 C519.25 1028 263.5 1028 0 1028 C0 688.76 0 349.52 0 0 Z " fill="#FEFEFE" transform="translate(0,0)"></path>
<path d="M0 0 C10.184 9.42 18.187 25.092 19.285 39.027 C19.398 45.458 18.628 50.546 16.082 56.449 C15.742 57.263 15.401 58.076 15.051 58.914 C9.554 70.966 0.431 79.176 -11.811 84.231 C-24.571 88.983 -37.916 91.063 -51.396 92.467 C-73.467 94.788 -92.836 99.454 -109.918 114.449 C-110.873 115.273 -111.828 116.097 -112.812 116.945 C-119.588 122.9 -125.441 129.258 -130.918 136.449 C-131.392 137.045 -131.866 137.641 -132.355 138.256 C-136.03 142.965 -138.807 147.714 -141.293 153.137 C-141.677 153.969 -142.062 154.802 -142.458 155.66 C-157.695 189.171 -167.718 225.414 -174.918 261.449 C-175.175 262.716 -175.433 263.982 -175.698 265.287 C-179.383 283.814 -180.882 302.133 -181.643 320.965 C-181.974 329.132 -182.447 337.29 -182.918 345.449 C-182.054 344.743 -181.19 344.037 -180.3 343.31 C-172.949 337.357 -165.848 332.799 -156.918 329.449 C-155.849 329.037 -154.781 328.624 -153.68 328.199 C-131.556 320.983 -104.63 324.379 -83.884 334.433 C-66.289 343.53 -54.261 358.605 -48.043 377.199 C-47.308 379.608 -46.597 382.024 -45.918 384.449 C-45.549 385.722 -45.549 385.722 -45.172 387.02 C-43.213 394.991 -43.748 403.301 -43.918 411.449 C-42.604 411.422 -41.291 411.395 -39.938 411.367 C-14.149 411.422 13.642 423.587 37.645 432.199 C38.843 432.622 40.042 433.045 41.277 433.481 C53.283 437.905 66.153 444.514 72.305 456.395 C77.671 470.579 75.06 486.538 72.707 501.074 C72.233 504.097 71.767 507.12 71.305 510.145 C71.192 510.876 71.08 511.607 70.965 512.361 C70.132 517.882 69.571 523.385 69.145 528.949 C66.847 555.882 58.051 583.659 46.309 607.904 C44.999 610.622 43.724 613.356 42.453 616.094 C34.616 632.875 26.639 649.868 15.082 664.449 C14.207 665.588 13.333 666.727 12.461 667.867 C7.617 674.158 2.62 680.207 -2.766 686.047 C-4.948 688.482 -6.96 691.004 -8.98 693.574 C-13.03 698.579 -17.43 703.148 -21.98 707.699 C-22.641 708.361 -23.302 709.022 -23.983 709.704 C-27.891 713.569 -31.916 717.249 -36.076 720.841 C-38.59 723.036 -40.997 725.34 -43.418 727.637 C-68.173 750.605 -98.381 765.143 -130.863 773.531 C-131.549 773.709 -132.235 773.887 -132.942 774.07 C-134.918 774.449 -134.918 774.449 -138.918 774.449 C-138.986 775.882 -138.986 775.882 -139.055 777.344 C-139.646 788.88 -140.689 800.351 -141.91 811.836 C-142.125 813.882 -142.333 815.928 -142.535 817.975 C-142.832 820.988 -143.148 823.998 -143.469 827.008 C-143.554 827.909 -143.64 828.81 -143.728 829.739 C-144.658 838.069 -147.219 847.099 -152.918 853.449 C-156.418 854.637 -156.418 854.637 -159.918 854.449 C-163.416 851.33 -164.776 847.93 -165.918 843.449 C-165.984 841.49 -165.984 841.49 -166.051 839.492 C-166.245 837.372 -166.245 837.372 -166.918 835.449 C-169.32 833.583 -170.87 832.657 -173.605 831.574 C-174.284 831.287 -174.962 831.001 -175.661 830.705 C-193.685 823.481 -213.771 826.057 -231.918 831.449 C-232.796 831.605 -233.674 831.761 -234.578 831.922 C-237.041 832.321 -237.041 832.321 -239.918 834.449 C-241.095 837.68 -241.749 840.808 -242.332 844.195 C-243.019 848.009 -244.228 850.989 -245.918 854.449 C-247.898 854.449 -249.878 854.449 -251.918 854.449 C-258.568 843.567 -260.983 833.137 -260.918 820.449 C-261.778 821.139 -262.638 821.829 -263.523 822.539 C-290.253 843.855 -318.56 859.26 -353.918 855.449 C-357.754 854.777 -361.481 853.875 -365.23 852.824 C-366.492 852.471 -366.492 852.471 -367.778 852.112 C-386.702 846.188 -400.436 828.202 -409.355 811.262 C-419.37 790.045 -417.659 764.25 -410.918 742.262 C-405.714 727.798 -399.605 712.861 -390.184 700.621 C-388.755 698.58 -388.755 698.58 -388.895 696.449 C-390.396 693.515 -392.546 691.835 -395.043 689.699 C-399 686.228 -402.685 682.711 -406.062 678.668 C-407.463 676.993 -408.906 675.353 -410.367 673.73 C-426.785 655.339 -437.839 633.175 -446.918 610.449 C-447.526 608.941 -447.526 608.941 -448.146 607.402 C-460.721 576.074 -468.643 544.101 -471.918 510.449 C-471.989 509.752 -472.059 509.055 -472.132 508.337 C-473.056 498.763 -473.071 489.123 -473.168 479.512 C-473.189 478.266 -473.211 477.021 -473.233 475.738 C-473.27 465.454 -472.134 457.958 -464.895 450.406 C-464.242 449.76 -463.59 449.115 -462.918 448.449 C-462.328 447.814 -461.737 447.178 -461.129 446.523 C-441.798 427.309 -400.452 414.449 -373.918 414.449 C-373.915 413.864 -373.913 413.279 -373.91 412.676 C-372.926 390.838 -360.452 369.288 -344.852 354.441 C-333.684 344.356 -321.1 337.367 -306.918 332.449 C-306.067 332.1 -305.216 331.751 -304.34 331.391 C-287.486 324.839 -268.496 329.12 -252.383 335.754 C-248.367 337.719 -244.657 340.007 -240.918 342.449 C-244.299 311.652 -250.327 281.982 -258.848 252.2 C-259.804 248.848 -260.736 245.489 -261.664 242.129 C-269.096 215.844 -280.255 192.492 -298.918 172.449 C-299.506 171.807 -300.094 171.165 -300.699 170.504 C-317.456 152.877 -338.236 149.298 -361.286 147.295 C-380.996 145.555 -401.081 141.528 -414.547 125.512 C-419.468 118.226 -422.217 109.208 -420.918 100.449 C-417.935 85.546 -411.628 73.414 -398.918 64.449 C-383.087 55.347 -366.916 52.54 -349.043 57.074 C-346.654 57.823 -344.278 58.615 -341.918 59.449 C-340.7 59.862 -339.482 60.274 -338.227 60.699 C-313.12 69.915 -291.659 88.348 -276.111 109.816 C-274.931 111.431 -273.716 113.018 -272.5 114.605 C-261.603 129.011 -252.843 145.396 -246.918 162.449 C-246.69 163.076 -246.462 163.702 -246.227 164.348 C-235.875 192.971 -231.492 223.84 -227.285 253.854 C-226.913 256.487 -226.53 259.118 -226.145 261.749 C-222.298 288.046 -219.631 314.32 -217.68 340.824 C-217.607 341.772 -217.535 342.719 -217.461 343.695 C-217.166 347.638 -216.892 351.566 -216.803 355.52 C-216.765 356.651 -216.727 357.783 -216.688 358.949 C-216.68 359.867 -216.672 360.785 -216.663 361.73 C-215.851 364.695 -214.883 365.851 -212.871 368.119 C-212.321 368.744 -211.771 369.369 -211.204 370.014 C-210.78 370.487 -210.355 370.961 -209.918 371.449 C-209.927 370.237 -209.936 369.024 -209.945 367.775 C-210.028 356.077 -210.087 344.379 -210.125 332.681 C-210.146 326.674 -210.173 320.667 -210.22 314.66 C-210.475 280.719 -209.103 247.242 -205.918 213.449 C-205.783 212.01 -205.783 212.01 -205.646 210.542 C-200.87 159.511 -193.711 112.455 -169.918 66.449 C-169.485 65.602 -169.051 64.755 -168.604 63.882 C-163.107 53.233 -156.304 43.86 -148.918 34.449 C-147.929 33.171 -146.941 31.893 -145.953 30.613 C-144.103 28.224 -142.236 25.851 -140.348 23.492 C-138.952 21.744 -137.572 19.983 -136.238 18.188 C-127.115 6.536 -112.099 -0.537 -98.918 -6.551 C-97.547 -7.181 -97.547 -7.181 -96.148 -7.824 C-67.943 -19.945 -24.705 -19.975 0 0 Z " fill="#012B4C" transform="translate(494.91796875,145.55078125)"></path>
<path d="M0 0 C24.883 -1.75 51.833 6.074 74 17 C74.614 17.301 75.228 17.602 75.861 17.912 C90.287 25.073 90.287 25.073 93.109 31.543 C94.602 37.705 95.708 43.661 96 50 C96.079 51.618 96.079 51.618 96.16 53.27 C97.358 102.993 78.46 152.479 56 196 C55.675 196.635 55.351 197.271 55.016 197.925 C45.27 216.947 33.375 233.561 18.707 249.105 C16.543 251.419 14.473 253.763 12.438 256.188 C11.303 257.468 10.156 258.739 9 260 C8.016 261.079 8.016 261.079 7.012 262.18 C-1.923 271.099 -13.031 276.982 -23.904 283.221 C-26.632 284.789 -29.343 286.382 -32.051 287.984 C-60.493 304.529 -91.782 314.111 -124 320 C-124.688 320.133 -125.377 320.266 -126.086 320.402 C-136.188 322.299 -146.388 322.174 -156.625 322.188 C-157.339 322.189 -158.052 322.19 -158.787 322.191 C-160.851 322.191 -162.913 322.181 -164.977 322.168 C-166.184 322.16 -167.391 322.153 -168.635 322.145 C-171.839 322.007 -174.854 321.601 -178 321 C-171.802 307.582 -163.552 294.283 -149.375 288.25 C-143.124 286.085 -136.73 284.851 -130.25 283.562 C-106.696 278.857 -87.747 269.103 -69 254 C-68.094 253.285 -67.188 252.569 -66.254 251.832 C-59.216 246.192 -52.551 240.191 -46 234 C-44.664 232.745 -44.664 232.745 -43.301 231.465 C-42.459 230.651 -41.617 229.838 -40.75 229 C-40.023 228.299 -39.296 227.597 -38.547 226.875 C-31.719 219.167 -26.301 210.53 -21.188 201.625 C-20.291 200.07 -20.291 200.07 -19.377 198.484 C-17.571 195.33 -15.781 192.168 -14 189 C-13.468 188.056 -12.937 187.113 -12.389 186.141 C-2.576 168.556 2.87 152.84 5.531 132.858 C7.006 122.056 8.99 111.302 15 102 C17.891 103.028 18.83 103.65 20.195 106.461 C20.502 107.423 20.809 108.384 21.125 109.375 C22.713 114.338 22.713 114.338 25 119 C27.946 120.277 29.991 119.967 33 119 C35.292 110.514 34.046 104.556 29.832 96.809 C25.773 90.586 20.696 86.443 13.496 84.434 C6.24 83.173 -0.723 82.815 -7 87 C-7 88.65 -7 90.3 -7 92 C-34.921 106.662 -64.857 116.93 -96 122 C-96.966 122.159 -96.966 122.159 -97.952 122.321 C-138.534 128.967 -181.049 132.532 -222 127 C-223.059 126.86 -224.118 126.72 -225.209 126.576 C-266.474 120.869 -312.585 108.132 -347 84 C-347 83.67 -347 83.34 -347 83 C-345.753 82.836 -345.753 82.836 -344.48 82.668 C-342.85 82.43 -342.85 82.43 -341.188 82.188 C-340.109 82.037 -339.03 81.886 -337.918 81.73 C-334.936 80.984 -333.858 80.379 -332 78 C-332.799 73.844 -333.418 71.54 -336.562 68.625 C-342.884 65.637 -347.818 65.332 -354.5 67.5 C-364.412 71.576 -370.27 77.464 -375 87 C-375.34 87.636 -375.681 88.271 -376.031 88.926 C-378.936 95.207 -378.478 102.226 -378 109 C-376.957 110.238 -376.957 110.238 -374.688 110.375 C-371.867 110.257 -371.867 110.257 -370.066 108.059 C-367.419 104.14 -365.876 100.108 -364.25 95.688 C-363.934 94.852 -363.618 94.016 -363.293 93.154 C-362.52 91.106 -361.756 89.055 -361 87 C-358.856 90.992 -358.094 95.023 -357.25 99.438 C-349.082 139.365 -332.153 181.71 -303 211 C-302.26 211.754 -301.52 212.508 -300.758 213.285 C-299.187 214.872 -297.596 216.439 -296 218 C-297.545 222.146 -300.241 223.932 -303.75 226.5 C-309.52 230.791 -315.001 235.336 -320.417 240.064 C-322.879 242.208 -325.279 244.186 -328 246 C-346.702 227.717 -346.702 227.717 -354 218 C-355.174 216.494 -355.174 216.494 -356.371 214.957 C-368.931 198.464 -377.096 179.42 -384 160 C-384.336 159.058 -384.672 158.116 -385.018 157.146 C-393.631 132.578 -400.895 106.151 -403.756 80.213 C-404.015 77.862 -404.312 75.518 -404.609 73.172 C-405.218 68.123 -405.655 63.074 -406 58 C-406.069 57.019 -406.139 56.039 -406.21 55.028 C-407.444 35.217 -407.444 35.217 -402.812 29.562 C-400.59 27.699 -400.59 27.699 -398 26 C-397.032 25.326 -396.064 24.652 -395.066 23.957 C-391.781 21.814 -388.437 19.889 -385 18 C-383.917 17.392 -382.834 16.783 -381.719 16.156 C-366.456 8.025 -346.434 1 -329 1 C-329.021 2.176 -329.041 3.351 -329.062 4.562 C-329.069 8.474 -328.643 12.145 -328 16 C-332.329 17.959 -336.738 18.809 -341.375 19.688 C-352.06 21.809 -362.369 24.995 -372.736 28.307 C-374.812 28.943 -376.889 29.495 -379 30 C-378.67 31.65 -378.34 33.3 -378 35 C-358.216 40.611 -338.417 46.128 -318.375 50.75 C-317.455 50.963 -316.535 51.176 -315.588 51.396 C-310.677 52.502 -305.893 53.272 -300.875 53.75 C-294.557 54.603 -290.873 57.717 -286.027 61.684 C-268.78 74.881 -245.412 76.922 -224.562 74.188 C-221.626 73.757 -218.831 73.305 -216.038 72.28 C-208.83 69.685 -201.845 69.631 -194.277 69.744 C-191.965 69.778 -189.654 69.794 -187.341 69.805 C-182.394 69.832 -177.447 69.884 -172.5 69.938 C-148.232 70.185 -124.21 69.791 -100 68 C-98.967 67.926 -97.933 67.853 -96.868 67.777 C-90.906 67.349 -84.952 66.858 -79 66.312 C-78.112 66.232 -77.225 66.151 -76.31 66.068 C-33.311 62.095 11.373 57.378 52 42 C52.704 41.739 53.408 41.478 54.133 41.209 C61.043 38.913 61.043 38.913 66 34 C65.835 31.357 65.359 30.323 63.383 28.547 C47.832 18.451 24.908 17.248 7 14 C5.831 13.787 4.661 13.573 3.457 13.354 C0.971 12.901 -1.514 12.449 -4 12 C-3.251 10.047 -2.503 8.094 -1.754 6.141 C-1.039 4.109 -0.486 2.096 0 0 Z " fill="#219BD8" transform="translate(449,580)"></path>
<path d="M0 0 C0.908 -0.001 1.815 -0.003 2.751 -0.004 C10.301 0.114 16.677 1.462 23.688 4.375 C23.688 5.365 23.688 6.355 23.688 7.375 C22.491 7.849 21.295 8.324 20.062 8.812 C8.481 14.004 -1.411 21.691 -10.837 30.067 C-12.2 31.275 -13.58 32.465 -14.961 33.652 C-31.048 47.684 -43.929 64.715 -53.16 83.984 C-53.947 85.616 -54.769 87.23 -55.621 88.828 C-61.234 99.421 -62.808 109.455 -63.312 121.375 C-59.65 120.45 -58.498 119.672 -56.461 116.418 C-55.855 115.14 -55.265 113.854 -54.688 112.562 C-53.999 111.115 -53.309 109.668 -52.617 108.223 C-52.249 107.444 -51.882 106.666 -51.503 105.864 C-39.935 81.68 -39.935 81.68 -31.312 72.375 C-30.494 71.44 -29.675 70.506 -28.832 69.543 C-7.961 45.9 23.313 18.418 56.113 16.137 C76.128 15.755 92.02 21.597 106.801 35.34 C109.441 37.926 111.628 40.286 113.688 43.375 C113.688 44.365 113.688 45.355 113.688 46.375 C108.815 47.431 103.971 48.357 99.027 49 C75.053 52.152 53.005 62.74 37.617 81.961 C31.927 89.732 27.586 98.087 23.202 106.647 C18.695 115.441 13.857 123.957 8.688 132.375 C8.256 133.089 7.825 133.803 7.38 134.538 C1.087 144.91 -5.803 153.745 -14.312 162.375 C-14.975 163.133 -15.638 163.891 -16.32 164.672 C-25.975 175.455 -42.096 181.953 -56.25 183.125 C-58.604 183.22 -60.958 183.304 -63.312 183.375 C-64.373 183.461 -65.434 183.548 -66.527 183.637 C-80.904 184.436 -94.037 177.857 -104.835 168.737 C-111.446 162.644 -115.706 154.904 -118.312 146.375 C-118.846 144.633 -118.846 144.633 -119.391 142.855 C-122.963 128.13 -121.35 110.555 -116.312 96.375 C-115.912 95.238 -115.511 94.101 -115.098 92.93 C-107.163 72.737 -93.295 53.911 -78.312 38.375 C-77.757 37.793 -77.201 37.212 -76.628 36.612 C-62.135 21.509 -62.135 21.509 -53.312 16.375 C-52.712 16.022 -52.112 15.67 -51.494 15.307 C-35.594 6.082 -18.57 -0.028 0 0 Z " fill="#EA6E7C" transform="translate(220.3125,795.625)"></path>
<path d="M0 0 C0.793 -0.007 1.587 -0.014 2.404 -0.022 C36.302 -0.256 36.302 -0.256 52.363 3.203 C53.875 3.526 53.875 3.526 55.417 3.855 C92.374 12.04 127.856 27.701 158.363 50.203 C159.214 50.801 160.065 51.399 160.941 52.016 C176.32 62.912 189.671 75.396 201.363 90.203 C202.133 91.163 202.903 92.123 203.696 93.112 C209.74 100.776 214.896 108.667 219.738 117.141 C220.473 118.413 221.208 119.684 221.943 120.956 C223.761 124.11 225.565 127.272 227.362 130.438 C228.302 132.095 229.246 133.75 230.189 135.405 C243.022 157.995 258.779 187.291 252.695 214.152 C250.421 220.796 246.489 226.023 240.227 229.332 C234.832 231.432 229.966 231.631 224.363 230.203 C220.676 228.52 218.485 226.664 216.363 223.203 C216.363 222.543 216.363 221.883 216.363 221.203 C215.703 221.203 215.043 221.203 214.363 221.203 C211.604 212.372 209.142 203.6 207.363 194.516 C205.955 187.34 203.981 180.697 201.316 173.891 C200.363 171.203 200.363 171.203 200.363 168.203 C199.703 168.203 199.043 168.203 198.363 168.203 C197.703 165.233 197.043 162.263 196.363 159.203 C195.703 159.203 195.043 159.203 194.363 159.203 C193.909 158.169 193.909 158.169 193.445 157.113 C190.972 151.566 188.36 146.218 185.281 140.98 C184.363 139.203 184.363 139.203 184.363 137.203 C183.703 137.203 183.043 137.203 182.363 137.203 C181.545 135.478 181.545 135.478 180.711 133.719 C178.438 129.183 175.739 125.08 172.801 120.953 C172.016 119.848 172.016 119.848 171.216 118.721 C164.846 109.907 157.732 101.883 149.363 94.898 C147.931 93.685 146.539 92.423 145.176 91.133 C109.604 57.55 60.928 46.099 13.406 45.908 C11.435 45.896 9.464 45.876 7.494 45.846 C-6.407 45.638 -19.131 46.907 -32.637 50.203 C-33.759 50.466 -34.881 50.73 -36.037 51.001 C-39.517 51.835 -42.983 52.717 -46.445 53.621 C-55.858 55.971 -64.139 55.9 -72.949 51.578 C-77.405 47.64 -78.416 43.716 -78.918 38.004 C-79.106 31.133 -78.995 26.111 -74.371 20.73 C-61.948 8.464 -38.343 4.794 -21.648 2.527 C-19.573 2.296 -19.573 2.296 -17.637 1.203 C-11.797 0.232 -5.908 0.035 0 0 Z " fill="#012B4C" transform="translate(496.63671875,284.796875)"></path>
<path d="M0 0 C1.369 0.012 1.369 0.012 2.766 0.025 C21.268 0.482 37.233 8.036 50.812 20.438 C51.604 21.136 52.395 21.835 53.211 22.555 C63.011 31.685 68.662 42.521 71.812 55.438 C72.037 56.266 72.261 57.095 72.492 57.949 C77.027 76.741 71.73 95.441 61.895 111.586 C49.891 128.693 34.794 137.291 14.523 141.047 C-6.879 143.3 -23.579 141.089 -40.773 127.375 C-55.951 114.299 -66.684 97.224 -68.395 76.988 C-69.479 56.725 -64.928 38.88 -51.188 23.438 C-50.656 22.825 -50.125 22.213 -49.578 21.582 C-37.47 8.522 -17.772 -0.212 0 0 Z " fill="#FCFDFD" transform="translate(207.1875,495.5625)"></path>
<path d="M0 0 C11.392 11.307 16.675 25.402 16.817 41.306 C16.585 60.666 10.225 76.815 -3.558 90.431 C-4.552 91.582 -4.552 91.582 -5.566 92.755 C-14.352 102.594 -28.47 109.165 -41.558 110.431 C-58.696 111.252 -74.481 108.035 -87.558 96.431 C-106.496 78.802 -106.496 78.802 -111.746 66.306 C-112.255 65.107 -112.764 63.908 -113.289 62.673 C-118.43 49.543 -116.409 33.169 -110.894 20.533 C-106.894 11.831 -102.074 4.507 -95.558 -2.569 C-95.008 -3.211 -94.457 -3.853 -93.89 -4.514 C-84.173 -15.215 -69.735 -21.697 -55.402 -22.542 C-33.227 -22.755 -15.866 -15.117 0 0 Z " fill="#FCFDFD" transform="translate(413.55810546875,515.56884765625)"></path>
<path d="M0 0 C24.525 22.371 48.161 55.492 50.421 89.512 C50.567 96.98 50.612 102.744 46.183 108.927 C45.605 109.834 45.028 110.742 44.433 111.677 C39.221 116.889 32.892 118.728 25.683 119.114 C22.229 118.929 20.156 118.661 17.183 116.927 C15.558 114.489 15.558 114.489 14.183 111.927 C13.626 111.37 13.069 110.813 12.495 110.239 C12.062 109.806 11.629 109.373 11.183 108.927 C11.183 108.267 11.183 107.607 11.183 106.927 C10.523 106.927 9.863 106.927 9.183 106.927 C8.872 105.935 8.561 104.944 8.24 103.923 C-3.359 67.178 -16.719 34.735 -52.671 15.707 C-70.833 6.448 -90.45 1.72 -110.817 1.739 C-111.729 1.74 -112.64 1.741 -113.579 1.741 C-123.278 1.828 -132.751 2.859 -142.302 4.54 C-151.302 6.122 -161.067 7.466 -169.38 2.802 C-173.968 -0.529 -176.039 -4.739 -177.817 -10.073 C-178.418 -16.041 -177.93 -20.821 -174.817 -26.073 C-133.463 -71.991 -37.197 -32.738 0 0 Z " fill="#012B4C" transform="translate(619.817138671875,412.073486328125)"></path>
<path d="M0 0 C40.025 29.798 51.673 84.161 59.27 130.715 C59.825 135.356 60.04 139.997 60.266 144.664 C60.501 149.156 61.012 153.526 61.66 157.98 C61.766 159.749 61.834 161.521 61.848 163.293 C61.862 164.135 61.876 164.976 61.891 165.844 C61.66 167.98 61.66 167.98 59.66 169.98 C57.207 170.324 57.207 170.324 54.66 169.98 C53.176 168.574 53.176 168.574 51.91 166.48 C51.154 165.249 51.154 165.249 50.383 163.992 C47.955 159.748 45.565 155.484 43.191 151.21 C39.311 144.263 35.091 137.588 30.66 130.98 C30.026 130.025 29.392 129.07 28.738 128.086 C12.652 104.854 -11.891 91.909 -37.402 81.23 C-55.442 73.679 -71.51 63.654 -79.84 45.043 C-83.239 34.498 -83.127 20.381 -78.602 10.234 C-76.5 6.481 -74.232 3.168 -71.34 -0.02 C-70.85 -0.564 -70.36 -1.108 -69.855 -1.668 C-51.899 -19.18 -18.714 -12.629 0 0 Z " fill="#012B4C" transform="translate(201.33984375,82.01953125)"></path>
<path d="M0 0 C1.403 1.047 2.779 2.131 4.125 3.25 C4.773 3.788 5.422 4.325 6.09 4.879 C12.817 11.009 15.782 18.599 16.328 27.598 C16.557 45.746 11.602 57.257 -0.875 70.25 C-1.53 70.968 -2.185 71.686 -2.859 72.426 C-7.489 77.334 -12.548 81.355 -17.938 85.375 C-34.791 97.979 -48.383 111.91 -58.875 130.25 C-59.232 130.872 -59.589 131.495 -59.957 132.136 C-65.346 141.642 -69.76 151.355 -73.605 161.588 C-75.847 167.381 -78.399 172.822 -82.875 177.25 C-86.062 178 -86.062 178 -88.875 177.25 C-97.028 168.428 -96.329 149.75 -97.562 138.375 C-97.672 137.372 -97.782 136.369 -97.896 135.336 C-102.069 96.822 -100.543 58.699 -76.875 26.25 C-59.637 4.875 -27.648 -17.676 0 0 Z " fill="#012B4C" transform="translate(369.875,35.75)"></path>
<path d="M0 0 C7.652 6.557 12.176 14.69 13.918 24.637 C14.316 30.807 12.176 35.381 8.5 40.25 C1.271 48.064 -6.787 51.523 -17.125 53.25 C-18.03 53.413 -18.935 53.576 -19.868 53.744 C-23.695 54.431 -27.527 55.085 -31.361 55.734 C-65.174 61.463 -94.201 73.755 -114.93 102.582 C-121.072 111.371 -126.006 120.532 -130.5 130.25 C-130.871 131.032 -131.241 131.814 -131.623 132.619 C-143.548 157.918 -152.07 185.063 -158.5 212.25 C-158.83 212.25 -159.16 212.25 -159.5 212.25 C-169.054 159.36 -147.199 92.771 -117.5 49.25 C-102.12 27.609 -83.394 8.626 -58.625 -1.75 C-57.96 -2.029 -57.295 -2.308 -56.611 -2.595 C-39.842 -9.21 -15.404 -10.558 0 0 Z " fill="#219BD8" transform="translate(471.5,158.75)"></path>
<path d="M0 0 C12.717 21.586 1.686 61.784 -4 84 C-11.333 112.177 -22.672 139.174 -36 165 C-36.487 165.953 -36.487 165.953 -36.984 166.925 C-46.73 185.947 -58.625 202.561 -73.293 218.105 C-75.457 220.419 -77.527 222.763 -79.562 225.188 C-80.697 226.468 -81.844 227.739 -83 229 C-83.984 230.079 -83.984 230.079 -84.988 231.18 C-93.923 240.099 -105.031 245.982 -115.904 252.221 C-118.632 253.789 -121.343 255.382 -124.051 256.984 C-152.493 273.529 -183.782 283.111 -216 289 C-216.688 289.133 -217.377 289.266 -218.086 289.402 C-228.188 291.299 -238.388 291.174 -248.625 291.188 C-249.339 291.189 -250.052 291.19 -250.787 291.191 C-252.851 291.191 -254.913 291.181 -256.977 291.168 C-258.184 291.16 -259.391 291.153 -260.635 291.145 C-263.839 291.007 -266.854 290.601 -270 290 C-264.414 277.908 -257.781 268.09 -247 260 C-244.699 259.25 -244.699 259.25 -243 259 C-242.505 260.609 -242.505 260.609 -242 262.25 C-240.271 266.236 -238.145 267.43 -234.296 269.21 C-230.385 270.555 -226.664 270.549 -222.562 270.438 C-221.688 270.423 -220.813 270.408 -219.912 270.393 C-176.84 269.167 -133.784 247.865 -102.941 218.754 C-100.563 216.51 -98.122 214.362 -95.625 212.25 C-91.676 208.812 -88.298 205.061 -85 201 C-84.346 200.207 -83.693 199.414 -83.02 198.598 C-75.264 188.751 -69.221 177.85 -63 167 C-62.539 166.208 -62.078 165.415 -61.604 164.599 C-43.119 132.811 -25.104 89.946 -27.148 52.215 C-27.183 51.189 -27.218 50.164 -27.254 49.107 C-27.335 46.989 -27.439 44.872 -27.566 42.756 C-27.767 35.16 -27.767 35.16 -25.558 31.819 C-23.796 30.039 -21.998 28.507 -20 27 C-19.267 26.35 -18.533 25.701 -17.777 25.031 C-17.17 24.526 -16.563 24.021 -15.938 23.5 C-8.729 17.238 -2.016 9.603 0 0 Z M-240 257 C-239.34 257.33 -238.68 257.66 -238 258 C-239.65 258.33 -241.3 258.66 -243 259 C-242.01 258.34 -241.02 257.68 -240 257 Z " fill="#057ABF" transform="translate(541,611)"></path>
<path d="M0 0 C0.713 0.574 1.426 1.147 2.16 1.738 C2.842 2.281 3.524 2.824 4.227 3.383 C17.267 14.28 28.305 28.515 30.419 45.862 C31.021 54.202 31.006 62.148 25.363 68.883 C18.626 74.637 12.71 76.253 3.875 76.047 C-2.074 75.371 -5.547 73.319 -9.316 68.711 C-12.815 63.617 -14.685 57.883 -16.801 52.121 C-20.825 41.529 -26.193 35.392 -36.48 30.477 C-44.224 27.324 -51.129 27.065 -59.34 28.238 C-66.995 29.332 -74.997 29.891 -81.84 25.738 C-86.667 21.564 -88.564 16.667 -89.152 10.426 C-88.375 1.251 -84.922 -5.271 -77.84 -11.262 C-54.809 -24.963 -20.232 -15.233 0 0 Z " fill="#012B4C" transform="translate(555.83984375,466.26171875)"></path>
<path d="M0 0 C5.218 3.32 9.54 7.311 13.884 11.688 C15.261 13.058 16.686 14.378 18.113 15.695 C30.995 27.829 39.349 43.195 47.87 58.529 C49.231 60.967 50.615 63.392 52.008 65.812 C56.35 73.405 60.382 81.075 63.996 89.043 C64.523 90.189 64.523 90.189 65.062 91.358 C67.431 96.74 67.431 96.74 66.309 100.105 C65.824 99.367 65.339 98.628 64.84 97.867 C57.643 86.975 50.285 76.625 41.309 67.105 C40.634 66.355 39.96 65.605 39.266 64.832 C29.017 53.872 16.418 46.819 2.309 42.105 C1.234 41.739 0.158 41.373 -0.949 40.996 C-10.799 38.025 -20.89 36.858 -31.086 35.675 C-42.405 34.283 -54.118 32.446 -61.691 23.105 C-64.536 17.378 -64.794 10.963 -63.039 4.824 C-60.811 -0.148 -57.396 -4.112 -52.691 -6.895 C-35.66 -13.019 -15.438 -8.218 0 0 Z " fill="#219BD8" transform="translate(164.69140625,231.89453125)"></path>
<path d="M0 0 C2.211 0.065 4.42 0.203 6.625 0.375 C7.834 0.465 9.043 0.555 10.289 0.648 C12.607 0.868 14.921 1.152 17.219 1.531 C22.447 2.179 27.612 2.144 32.875 2.125 C33.874 2.129 34.873 2.133 35.902 2.137 C47.944 2.122 59.972 1.522 72 1 C72.023 8.528 72.041 16.055 72.052 23.583 C72.057 27.078 72.064 30.574 72.075 34.069 C72.088 38.085 72.093 42.101 72.098 46.117 C72.103 47.376 72.108 48.634 72.113 49.93 C72.113 51.091 72.113 52.252 72.114 53.449 C72.116 54.475 72.118 55.501 72.12 56.558 C72 59 72 59 71 61 C67.489 59.92 64.273 58.64 61 57 C42.454 48.788 19.68 53.409 1.27 59.571 C0.468 59.839 -0.334 60.107 -1.16 60.384 C-1.768 60.587 -2.375 60.79 -3 61 C-2.881 54.705 -2.756 48.41 -2.628 42.116 C-2.585 39.98 -2.543 37.845 -2.503 35.709 C-1.861 1.861 -1.861 1.861 0 0 Z " fill="#057ABF" transform="translate(257,919)"></path>
<path d="M0 0 C21.525 6.522 37.145 26.953 47.352 45.91 C49.913 50.817 52.27 55.812 54.566 60.848 C54.944 61.672 55.322 62.496 55.711 63.346 C58.765 70.217 60.544 76.848 61.34 84.332 C61.649 86.486 62.172 88.502 62.754 90.598 C63.573 94.106 63.641 95.125 62.629 98.348 C62.069 97.572 61.51 96.796 60.934 95.996 C46.043 75.767 27.874 62.329 5.504 51.285 C-21.327 37.988 -21.327 37.988 -27.551 23.953 C-29.326 18.316 -29.702 13.143 -27.121 7.723 C-20.568 -2.499 -11.118 -2.152 0 0 Z " fill="#219BD8" transform="translate(175.37109375,92.65234375)"></path>
<path d="M0 0 C4.599 3.816 7.032 7.297 7.938 13.293 C8.244 22.687 5.33 29.938 -0.614 37.235 C-2.956 39.711 -5.366 42.075 -7.844 44.414 C-8.656 45.207 -9.468 46.001 -10.305 46.818 C-14.628 51.013 -19.069 55.037 -23.624 58.977 C-26.488 61.499 -29.21 64.151 -31.906 66.852 C-32.463 67.409 -33.02 67.967 -33.594 68.542 C-38.59 73.611 -43.075 79.005 -47.469 84.602 C-48.167 85.445 -48.866 86.288 -49.586 87.156 C-54.142 92.675 -57.964 98.362 -61.469 104.602 C-67.441 95.644 -64.356 81.568 -62.469 71.602 C-61.074 65.194 -59.312 58.892 -57.469 52.602 C-57.242 51.818 -57.015 51.034 -56.781 50.227 C-51.264 31.511 -41.972 12.866 -24.469 2.602 C-17.168 -1.354 -7.729 -4.378 0 0 Z " fill="#219BD8" transform="translate(353.46875,51.3984375)"></path>

<path d="M0 0 C0.259 3.311 0.476 6.623 0.688 9.938 C0.76 10.864 0.833 11.79 0.908 12.744 C1.514 22.899 -1.299 31.265 -8 39 C-19.854 49.523 -34.797 53.508 -50.328 53.254 C-58.43 52.694 -67.942 51.894 -74 46 C-79.294 38.059 -77.576 26.969 -76 18 C-75.005 17.84 -75.005 17.84 -73.99 17.677 C-51.475 13.995 -21.374 0 0 0 Z " fill="#FBFBFC" transform="translate(397,707)"></path>
<path d="M0 0 C20.79 0 41.58 0 63 0 C63 25.57 63 25.57 56.746 32.496 C55.984 33.137 55.222 33.777 54.438 34.438 C53.673 35.096 52.909 35.755 52.121 36.434 C44.172 42.304 28.103 40.782 18.676 39.574 C10.607 38.047 3.636 35.193 -1.223 28.254 C-2.351 24.982 -2.289 21.793 -2.25 18.375 C-2.258 17.714 -2.265 17.052 -2.273 16.371 C-2.251 10.523 -1.196 5.979 0 0 Z " fill="#FCFCFD" transform="translate(243,726)"></path>
<path d="M0 0 C7.55 5.494 11.819 11.024 13.375 20.375 C14.173 29.702 13.523 35.746 8.25 43.5 C3.517 48.866 -3.364 52.066 -10.43 52.578 C-17.167 52.681 -22.052 52.71 -27.207 47.898 C-33.349 41.353 -36.045 32.912 -35.898 24.004 C-34.967 15.052 -31.571 7.198 -24.625 1.375 C-16.482 -3.846 -8.495 -5.372 0 0 Z " fill="#022B4C" transform="translate(234.625,547.625)"></path>
<path d="M0 0 C2.28 0.48 4.501 1.025 6.75 1.625 C8.221 2.002 9.693 2.378 11.164 2.754 C13.596 3.38 16.028 4.007 18.46 4.636 C29.638 7.502 40.692 9.72 52.157 11.1 C53.479 11.259 53.479 11.259 54.828 11.422 C55.611 11.51 56.394 11.599 57.2 11.69 C59 12 59 12 60 13 C61.17 30.835 61.17 30.835 55.266 38.148 C49.47 44.37 44.394 47.1 35.812 47.438 C25.569 47.167 15.727 43.884 8 37 C-1.246 26.436 -1.784 14.379 -1 1 C-0.67 0.67 -0.34 0.34 0 0 Z " fill="#FBFCFC" transform="translate(171,712)"></path>
<path d="M0 0 C12.627 9.686 20.367 21.595 24 37 C24.211 40.964 24.265 43.662 22 47 C18.25 49.5 16.441 49.536 12 49 C8.004 45.587 5.402 41.658 2.75 37.188 C-1.056 31.043 -5.142 26.333 -11 22 C-11.646 21.51 -12.292 21.02 -12.957 20.516 C-21.317 14.727 -30.032 13.787 -39.973 14.012 C-44.825 13.993 -49.115 13.532 -53 10.375 C-54.506 6.797 -54.923 3.74 -54 0 C-50.895 -5.568 -46.071 -7.627 -40.188 -9.5 C-25.906 -12.999 -12.024 -7.993 0 0 Z " fill="#032C4D" transform="translate(399,421)"></path>
<path d="M0 0 C2.464 2.358 3.34 3.527 4.5 6.812 C4.301 11.298 4.301 11.298 2.375 13.625 C-3.415 16.766 -7.835 16.836 -14.312 16.5 C-22.806 16.288 -29.158 17.264 -36.625 21.625 C-37.431 22.083 -38.236 22.54 -39.066 23.012 C-48.393 28.772 -54.331 36.198 -59.766 45.574 C-64.501 53.344 -64.501 53.344 -68.875 54.438 C-69.782 54.499 -70.69 54.561 -71.625 54.625 C-75.359 50.079 -75.999 46.015 -75.895 40.242 C-74.385 25.581 -64.496 13.858 -53.625 4.625 C-36.919 -7.142 -17.839 -14.398 0 0 Z " fill="#022C4D" transform="translate(209.625,420.375)"></path>
<path d="M0 0 C5.48 3.166 7.958 8.172 10 14 C12.136 24.088 10.428 31.066 5.375 39.812 C0.47 44.33 -5.281 47.254 -12 47.625 C-19.257 47.203 -25.553 43.968 -30.438 38.625 C-36.13 31.078 -37.022 24.365 -36 15 C-33.904 7.54 -28.164 0.841 -21.562 -3 C-13.285 -5.323 -7.537 -3.73 0 0 Z " fill="#022C4D" transform="translate(382,543)"></path>
<path d="M0 0 C2.653 2.561 4.944 5.156 7.125 8.125 C11.276 13.561 16.083 18.261 21 23 C16.248 27.752 8.699 27.863 2.312 28.188 C-3.198 28.133 -8.599 27.008 -14 26 C-14 21.547 -13.513 20.896 -10.938 17.5 C-6.847 11.907 -3.407 6.027 0 0 Z " fill="#0579BC" transform="translate(292,605)"></path>
<path d="M0 0 C2.024 3.035 2.321 4.194 2.625 7.688 C2.7 8.496 2.775 9.304 2.852 10.137 C2.901 10.752 2.95 11.366 3 12 C0.894 10.292 0.062 9.479 -0.293 6.738 C-0.258 5.938 -0.223 5.137 -0.188 4.312 C-0.16 3.504 -0.133 2.696 -0.105 1.863 C-0.071 1.248 -0.036 0.634 0 0 Z " fill="#227BAD" transform="translate(236,179)"></path>
</svg>